<svg width="153" height="150" viewBox="0 0 153 150" fill="none" xmlns="http://www.w3.org/2000/svg">
<path d="M46.075 52.8975C46.0597 52.4578 46.0848 52.1267 46.1504 51.9043C46.2514 51.644 46.4851 51.5074 46.8515 51.4946C47.1813 51.4831 47.5503 51.5436 47.9585 51.6761C48.4034 51.8073 48.8306 51.9575 49.2401 52.1266C50.2815 52.5305 51.2091 52.8283 52.0229 53.02C52.8734 53.2104 53.9216 53.2839 55.1675 53.2404C59.7114 53.0817 63.0816 51.8817 65.278 49.6403C67.5111 47.3977 68.5669 44.5357 68.4453 41.0545C68.3365 37.9397 67.3617 35.2405 65.5209 32.9567C63.6787 30.6362 61.3782 28.8454 58.6191 27.5843C55.8968 26.3219 53.1386 25.611 50.3447 25.4518L54.2898 48.5932C54.3116 49.2161 54.2379 49.7324 54.0687 50.1419C53.9362 50.5501 53.5768 50.7644 52.9905 50.7849C52.8465 50.8633 52.5371 49.8835 52.0623 47.8455C51.5876 45.8075 50.9323 42.8035 50.0966 38.8336C49.1279 34.2079 48.3846 30.7851 47.8668 28.5652C47.3477 26.3086 46.9542 25.0199 46.6862 24.699C43.6447 24.8053 41.1586 25.0572 39.228 25.4548C37.2961 25.8158 35.8241 26.2158 34.8122 26.6547C33.8002 27.0936 33.3859 27.3099 33.5691 27.3035C33.3833 27.2366 33.2512 27.1311 33.1728 26.9871C33.0931 26.8064 33.0292 26.5518 32.981 26.2233C32.8962 25.8961 32.8329 25.6598 32.7912 25.5145C32.7604 24.6351 33.524 23.9113 35.0818 23.3432C36.6396 22.7752 38.2764 22.3695 39.9923 22.1261C41.7448 21.8815 42.9142 21.7489 43.5005 21.7284C47.4215 21.5915 51.5355 22.2549 55.8425 23.7188C60.1483 25.1461 63.8024 27.3482 66.8048 30.3252C69.8072 33.3023 71.382 36.8978 71.5292 41.1119C71.6392 44.2633 70.9455 46.9842 69.4478 49.2745C67.9489 51.5282 65.9367 53.2679 63.4113 54.4934C60.9225 55.7177 58.2307 56.3804 55.3358 56.4815C52.9905 56.5634 50.8707 56.2705 48.9762 55.6029C47.0818 54.9353 46.1147 54.0335 46.075 52.8975ZM81.2264 55.0269C80.3836 55.0564 79.6628 53.8524 79.064 51.4152C78.464 48.9413 78.0593 46.8091 77.85 45.0187C77.6407 43.2282 77.34 40.3953 76.9478 36.52C76.8894 35.8983 76.8429 35.0928 76.8084 34.1034C76.7649 32.8575 76.8264 31.9931 76.993 31.5104C77.1962 31.0263 77.536 30.7759 78.0124 30.7593C78.4155 30.7452 78.7302 30.826 78.9564 31.0015C79.2181 31.1391 79.4469 31.388 79.6429 31.748L79.6647 33.9486C79.7466 36.2938 79.934 38.507 80.2268 40.588C80.5563 42.6678 81.0389 45.4576 81.6748 48.9576C82.0217 50.4864 82.2674 51.7436 82.4119 52.7291C82.5031 53.2396 82.4294 53.7558 82.1908 54.2778C81.951 54.7631 81.6295 55.0128 81.2264 55.0269ZM78.7964 24.8433C77.9902 24.8715 77.3747 24.5811 76.9499 23.9723C76.5617 23.3621 76.3516 22.599 76.3196 21.6829C76.3055 21.2798 76.3136 20.986 76.3438 20.8015C76.2867 20.2165 76.6063 19.9118 77.3025 19.8875C77.8155 19.8695 78.333 19.9799 78.855 20.2185C79.4123 20.4191 79.583 20.5783 79.367 20.6959C79.7667 21.6359 79.9762 22.3807 79.9953 22.9303C80.012 23.4067 79.9155 23.7953 79.7059 24.0961C79.495 24.3603 79.1918 24.6094 78.7964 24.8433ZM97.5897 81.2568C94.5116 81.3643 91.8974 80.575 89.7473 78.889C87.6351 77.2384 86.3057 74.3681 85.7593 70.278C85.7009 69.6563 85.7759 69.1767 85.9842 68.8393C86.2292 68.5005 86.5533 68.3241 86.9563 68.31C87.3961 68.2947 87.7866 68.4461 88.1279 68.7644C88.4705 69.1193 88.6337 69.5906 88.6176 70.1782C88.702 72.5967 89.5931 74.4734 91.2907 75.8083C93.0263 77.1786 95.1949 77.8183 97.7966 77.7274C99.2991 77.6749 100.599 77.0792 101.697 75.9402C102.831 74.7999 103.675 73.2295 104.229 71.2289C104.784 69.265 105.017 67.0188 104.929 64.4904C104.774 60.0564 104.679 55.7488 104.643 51.5675L104.6 48.7623C103.223 50.3146 101.961 51.4594 100.812 52.1966C99.7007 52.9325 98.3387 53.3286 96.7263 53.3849C93.9047 53.4835 91.7898 52.8052 90.3815 51.3501C89.0085 49.8571 88.267 47.5349 88.1569 44.3835C88.0942 42.588 88.5053 40.7025 89.3903 38.727C90.3105 36.7137 91.5905 35.018 93.23 33.6399C94.9062 32.2606 96.8254 31.5331 98.9874 31.4576C99.7203 31.432 100.401 31.4816 101.029 31.6065C103.392 32.0376 105.044 34.1629 105.984 37.9824C106.925 41.8019 107.502 46.7714 107.716 52.891C107.775 54.5767 107.816 56.8133 107.84 59.6008L107.967 64.8245C108.04 66.9132 107.79 69.1967 107.216 71.6749C106.644 74.1898 105.565 76.3921 103.98 78.2819C102.395 80.1717 100.265 81.1633 97.5897 81.2568ZM95.7751 49.7859C98.4868 49.6912 100.517 48.9783 101.864 47.6471C103.211 46.2792 103.84 44.3311 103.751 41.8026C103.74 41.4728 103.683 40.9061 103.582 40.1025C103.34 38.4233 102.854 37.1194 102.124 36.191C101.43 35.2247 100.369 34.7664 98.9396 34.8163C97.4372 34.8688 96.0816 35.4481 94.8728 36.5543C93.664 37.6605 92.739 39.0137 92.0978 40.6137C91.4553 42.1771 91.1577 43.6367 91.2051 44.9925C91.2524 46.3483 91.6964 47.5069 92.5372 48.4681C93.3766 49.3927 94.456 49.832 95.7751 49.7859ZM115.849 53.8177C115.006 53.8472 114.285 52.6432 113.686 50.206C113.086 47.7321 112.682 45.5999 112.472 43.8095C112.263 42.019 111.962 39.1861 111.57 35.3108C111.512 34.6891 111.465 33.8836 111.431 32.8942C111.387 31.6483 111.449 30.7839 111.615 30.3011C111.819 29.8171 112.158 29.5667 112.635 29.5501C113.038 29.536 113.353 29.6168 113.579 29.7923C113.841 29.9299 114.069 30.1788 114.265 30.5388L114.287 32.7394C114.369 35.0846 114.556 37.2978 114.849 39.3788C115.179 41.4586 115.661 44.2484 116.297 47.7484C116.644 49.2772 116.89 50.5344 117.034 51.5199C117.126 52.0304 117.052 52.5466 116.813 53.0686C116.573 53.5539 116.252 53.8036 115.849 53.8177ZM113.419 23.6341C112.613 23.6623 111.997 23.3719 111.572 22.7631C111.184 22.1529 110.974 21.3898 110.942 20.4737C110.928 20.0706 110.936 19.7768 110.966 19.5923C110.909 19.0073 111.229 18.7026 111.925 18.6783C112.438 18.6603 112.955 18.7707 113.477 19.0093C114.035 19.2099 114.205 19.3691 113.989 19.4867C114.389 20.4267 114.599 21.1715 114.618 21.7211C114.634 22.1975 114.538 22.5861 114.328 22.8869C114.117 23.1511 113.814 23.4002 113.419 23.6341ZM130.891 53.2373C130.527 53.3234 130.29 53.3684 130.18 53.3722C129.044 53.4119 128.227 52.5966 127.728 50.9263C127.266 49.2548 126.982 46.8982 126.876 43.8568C126.832 42.6109 126.801 40.6674 126.782 38.0265C126.799 36.4116 126.794 35.201 126.765 34.3948C122.258 34.5523 119.987 34.118 119.951 33.0919C119.939 32.7621 119.967 32.5043 120.034 32.3185C120.137 32.1315 120.354 32.0322 120.684 32.0207L126.662 31.4267C126.562 29.6324 126.402 27.6751 126.181 25.5548C125.968 23.6545 125.815 21.8987 125.722 20.2877C125.708 19.8846 125.864 19.604 126.188 19.4459C126.512 19.2511 126.857 19.1474 127.223 19.1346C127.663 19.1192 128.038 19.3446 128.347 19.8107C128.656 20.2402 128.818 20.6932 128.835 21.1695L129.571 31.215L134.141 31.2755C134.835 31.1779 135.425 31.2857 135.913 31.5988C136.438 31.9107 136.732 32.4508 136.795 33.219C136.037 33.5757 135.202 33.8067 134.288 33.912C133.375 34.0173 131.837 34.1077 129.675 34.1832C129.794 37.5911 130.154 43.1919 130.757 50.9856C130.785 51.7918 130.805 52.3598 130.816 52.6896C130.863 52.9815 130.888 53.1641 130.891 53.2373Z" fill="#686868"/>
<path d="M38.2051 119.266C38.1897 118.826 38.2149 118.495 38.2805 118.272C38.3814 118.012 38.6152 117.875 38.9816 117.863C39.3114 117.851 39.6804 117.912 40.0886 118.044C40.5335 118.175 40.9606 118.325 41.3701 118.495C42.4115 118.899 43.3391 119.196 44.153 119.388C45.0035 119.578 46.0517 119.652 47.2976 119.608C51.8415 119.45 55.2117 118.25 57.4081 116.008C59.6412 113.766 60.6969 110.904 60.5754 107.423C60.4666 104.308 59.4918 101.608 57.6509 99.3247C55.8088 97.0042 53.5082 95.2134 50.7492 93.9523C48.0268 92.6899 45.2687 91.979 42.4747 91.8198L46.4199 114.961C46.4416 115.584 46.3679 116.1 46.1988 116.51C46.0663 116.918 45.7069 117.132 45.1206 117.153C44.9765 117.231 44.6672 116.251 44.1924 114.213C43.7176 112.175 43.0624 109.172 42.2267 105.202C41.2579 100.576 40.5147 97.1531 39.9969 94.9332C39.4778 92.6766 39.0843 91.3879 38.8162 91.067C35.7747 91.1733 33.2887 91.4252 31.3581 91.8228C29.4261 92.1838 27.9542 92.5838 26.9422 93.0227C25.9303 93.4616 25.5159 93.6779 25.6991 93.6715C25.5134 93.6046 25.3813 93.4991 25.3028 93.3551C25.2232 93.1744 25.1592 92.9198 25.1111 92.5913C25.0263 92.2641 24.963 92.0278 24.9212 91.8825C24.8905 91.0031 25.654 90.2793 27.2118 89.7112C28.7696 89.1432 30.4065 88.7375 32.1223 88.4941C33.8749 88.2495 35.0443 88.1169 35.6306 88.0964C39.5515 87.9595 43.6655 88.6229 47.9726 90.0868C52.2784 91.5141 55.9325 93.7162 58.9349 96.6932C61.9373 99.6703 63.5121 103.266 63.6592 107.48C63.7693 110.631 63.0755 113.352 61.5779 115.643C60.079 117.896 58.0668 119.636 55.5414 120.861C53.0526 122.086 50.3607 122.748 47.4658 122.849C45.1206 122.931 43.0007 122.639 41.1063 121.971C39.2118 121.303 38.2448 120.402 38.2051 119.266ZM83.7982 120.975C79.9872 121.108 76.6478 120.565 73.7801 119.344C70.9478 118.085 69.4728 115.77 69.355 112.399C69.3128 111.19 69.6383 110.004 70.3315 108.843C71.0247 107.681 72.0737 106.727 73.4785 105.981C74.8821 105.198 76.6099 104.771 78.662 104.7C80.2377 104.645 81.5777 104.671 82.6822 104.779C83.7866 104.887 85.0649 105.246 86.5171 105.856C87.9693 106.466 89.4898 107.458 91.0788 108.834C90.4042 106.326 89.4473 104.139 88.2081 102.275C86.969 100.41 85.5986 98.9906 84.097 98.0158C82.6307 97.003 81.2014 96.5209 79.8089 96.5696C79.1493 96.5926 78.5308 96.7426 77.9535 97.0196C77.4115 97.2587 76.7451 97.6122 75.9543 98.08C75.0586 98.6983 74.3909 99.0152 73.9512 99.0305C73.768 99.0369 73.6012 98.9877 73.4508 98.8829C73.3357 98.7402 73.275 98.5772 73.2686 98.394C73.2174 96.9282 73.819 95.7698 75.0734 94.9189C76.3644 94.0666 77.9457 93.6445 79.8171 93.6525C82.3873 93.7095 84.7709 94.7269 86.968 96.7048C89.1637 98.646 90.9187 101.098 92.2329 104.06C93.5838 107.022 94.3098 109.95 94.4109 112.845C94.4275 113.321 94.4145 114 94.372 114.882L92.6092 114.834C91.1182 112.061 89.2528 110.127 87.0132 109.031C84.809 107.897 82.6075 107.368 80.4089 107.445C77.5872 107.544 75.5865 108.036 74.4067 108.921C73.2269 109.806 72.6651 111.054 72.7214 112.667C72.7803 114.352 73.6705 115.679 75.3919 116.646C77.1134 117.613 79.2934 118.051 81.9317 117.959C83.3975 117.907 84.5676 117.793 85.4419 117.616C86.315 117.402 87.2228 117.132 88.1653 116.805C88.9259 116.522 89.5974 116.315 90.1799 116.185C90.7623 116.054 91.5116 115.973 92.4277 115.941C93.4538 115.905 94.0976 115.956 94.3592 116.094C94.6575 116.23 94.8156 116.555 94.8335 117.068C94.8463 117.434 94.1111 117.918 92.6279 118.521C91.1447 119.123 89.4763 119.676 87.6228 120.181C85.7693 120.686 84.4944 120.951 83.7982 120.975ZM99.4041 113.936C99.9031 113.515 100.391 113.296 100.867 113.28C101.307 113.264 101.733 113.378 102.145 113.62C102.593 113.862 103.045 114.176 103.499 114.564C103.951 114.915 104.309 115.177 104.572 115.352C105.438 115.982 106.61 116.455 108.088 116.77C109.567 117.085 111.131 117.214 112.78 117.156C114.649 117.091 116.304 116.685 117.745 115.937C119.222 115.152 119.939 114.155 119.897 112.945C119.859 111.846 119.425 110.999 118.598 110.404C117.768 109.773 116.781 109.33 115.634 109.077C114.488 108.823 112.976 108.601 111.098 108.41C108.56 108.205 106.531 107.909 105.014 107.522C103.533 107.133 102.335 106.459 101.421 105.501C100.506 104.505 100.016 103.092 99.952 101.259C99.8829 99.2806 100.766 97.7822 102.602 96.7641C104.436 95.7095 106.562 95.1399 108.981 95.0554C111.18 94.9786 113.065 95.3897 114.637 96.2887C116.245 97.1498 117.097 98.4409 117.194 100.162C117.302 101.149 117.183 101.942 116.837 102.541C116.49 103.103 116.06 103.393 115.547 103.411C115.253 103.422 114.993 103.321 114.766 103.108C114.575 102.895 114.473 102.605 114.46 102.239C114.44 101.652 114.619 101.004 114.997 100.294C114.784 99.4206 114.156 98.7821 113.114 98.3782C112.11 97.973 110.911 97.7947 109.519 97.8434C107.467 97.915 105.849 98.3567 104.667 99.1685C103.483 99.9436 102.909 100.844 102.945 101.87C102.984 102.97 103.453 103.797 104.353 104.353C105.253 104.908 106.33 105.293 107.585 105.506C108.875 105.681 110.697 105.837 113.05 105.975C115.001 106.164 116.587 106.42 117.809 106.744C119.068 107.067 120.137 107.745 121.017 108.779C121.896 109.775 122.369 111.245 122.437 113.187C122.507 115.202 121.629 116.829 119.801 118.067C117.972 119.268 115.756 119.914 113.154 120.005C109.82 120.121 106.813 119.658 104.135 118.614C101.494 117.569 99.9168 116.01 99.4041 113.936ZM133.365 119.134C133.183 119.177 132.957 118.488 132.687 117.066C132.454 115.644 132.112 113.197 131.66 109.728C130.948 104.029 130.178 98.8095 129.352 94.0688C128.563 89.3268 127.631 85.2318 126.557 81.7839C126.473 81.4933 126.574 81.2329 126.86 81.0028C127.145 80.7727 127.544 80.6487 128.058 80.6308C128.314 80.6218 128.516 80.6331 128.664 80.6646C129.667 83.1245 130.385 85.3007 130.818 87.1934C131.288 89.0849 131.736 91.4173 132.163 94.1907L132.513 96.3248C134.666 94.9289 136.658 94.1989 138.49 94.1349C141.825 94.0184 144.242 95.4566 145.74 98.4495C147.274 101.404 148.139 105.667 148.333 111.237C148.407 113.362 148.342 115.162 148.137 116.637C147.93 118.075 147.643 118.8 147.277 118.813C146.801 118.83 146.257 118.5 145.646 117.825L145.583 116.011L145.429 110.017C145.389 108.881 145.303 107.472 145.171 105.789C144.961 102.934 144.299 100.793 143.186 99.3642C142.108 97.9342 140.306 97.2634 137.777 97.3517C136.091 97.4106 134.537 98.0886 133.115 99.3857C133.164 100.778 133.269 102.205 133.43 103.667C133.628 105.128 133.842 106.551 134.074 107.937C134.399 109.871 134.642 111.586 134.804 113.085C135.002 114.546 135.132 116.174 135.195 117.969C134.991 118.417 134.744 118.719 134.456 118.876C134.205 119.031 133.841 119.117 133.365 119.134Z" fill="#686868"/>
<path d="M0.651805 107.192L41.0841 95.5309L42.213 100.603L0.651805 107.192Z" fill="#686868"/>
<path d="M64.9846 120.179L73.4996 117.723L73.7373 118.791L64.9846 120.179Z" fill="#686868"/>
<path d="M104.244 92.1862L128.849 85.0898L129.536 88.1764L104.244 92.1862Z" fill="#686868"/>
<path d="M63.9377 99.1889L76.8727 95.4583L77.2339 97.081L63.9377 99.1889Z" fill="#686868"/>
<path d="M120.056 103.829L132.991 100.099L133.352 101.721L120.056 103.829Z" fill="#686868"/>
<path d="M92.0558 100.829L104.991 97.0986L105.352 98.7212L92.0558 100.829Z" fill="#686868"/>
<path d="M100.859 111.723L116.187 107.302L116.615 109.225L100.859 111.723Z" fill="#686868"/>
<path d="M79.9846 102.179L88.4996 99.7232L88.7373 100.791L79.9846 102.179Z" fill="#686868"/>
<path d="M29.0833 112.466L43.7249 108.244L44.1337 110.08L29.0833 112.466Z" fill="#686868"/>
</svg>
