<?xml version="1.0" encoding="UTF-8" standalone="no"?>
<svg
   xmlns:dc="http://purl.org/dc/elements/1.1/"
   xmlns:cc="http://creativecommons.org/ns#"
   xmlns:rdf="http://www.w3.org/1999/02/22-rdf-syntax-ns#"
   xmlns:svg="http://www.w3.org/2000/svg"
   xmlns="http://www.w3.org/2000/svg"
   xmlns:sodipodi="http://sodipodi.sourceforge.net/DTD/sodipodi-0.dtd"
   xmlns:inkscape="http://www.inkscape.org/namespaces/inkscape"
   viewBox="0 0 113.32812 118.332"
   version="1.1"
   id="svg54"
   sodipodi:docname="calculator-32229.svg"
   width="113.32812"
   height="118.332"
   inkscape:version="1.0.2 (e86c870879, 2021-01-15, custom)">
  <metadata
     id="metadata60">
    <rdf:RDF>
      <cc:Work
         rdf:about="">
        <dc:format>image/svg+xml</dc:format>
        <dc:type
           rdf:resource="http://purl.org/dc/dcmitype/StillImage" />
        <dc:title></dc:title>
      </cc:Work>
    </rdf:RDF>
  </metadata>
  <defs
     id="defs58" />
  <sodipodi:namedview
     pagecolor="#ffffff"
     bordercolor="#666666"
     borderopacity="1"
     objecttolerance="10"
     gridtolerance="10"
     guidetolerance="10"
     inkscape:pageopacity="0"
     inkscape:pageshadow="2"
     inkscape:window-width="1920"
     inkscape:window-height="1050"
     id="namedview56"
     showgrid="false"
     fit-margin-top="0"
     fit-margin-left="0"
     fit-margin-right="0"
     fit-margin-bottom="0"
     inkscape:zoom="2.9806135"
     inkscape:cx="-12.743263"
     inkscape:cy="11.299044"
     inkscape:window-x="1920"
     inkscape:window-y="563"
     inkscape:window-maximized="0"
     inkscape:current-layer="g52" />
  <g
     transform="matrix(1.25,0,0,-1.25,-194.56895,787.79662)"
     id="g52">
    <path
       d="m 207.98,624.63155 c 12.425,-9.1316 24.864,-18.328 35.982,-28.474 l -35.578,-38.221 v 0 l -1.14186,-1.32783 -17.44167,-18.64567 c -5.3825,5.8955 -10.38,12.393 -15.972,18.296 -4.7472,5.1725 -9.4306,10.365 -13.876,15.698 -1.4672,2.3643 1.6799,3.7837 2.5304,5.6456 l 38.816,50.93 c 2.4135,-0.82532 4.5412,-2.577 6.6809,-3.902"
       fill="#1f57af"
       id="path18"
       sodipodi:nodetypes="ccccccccccc" />
    <path
       d="m 203.93,622.45155 c 9.3283,-7.1766 19.822,-13.8 28.858,-21.414 l 0.30966,-2.7059 c -14.196,-15.88 -28.412,-31.696 -42.282,-47.968 -0.88113,-0.33093 -1.5589,0.30833 -2.0905,0.921 -7.9302,7.6604 -16.476,14.789 -24.69,22.226 0.12227,2.9052 2.8986,4.6342 4.2595,7.1354 l 5.3865,6.6291 24.046,29.424 c 1.7995,1.7197 3.171,3.9458 4.8496,5.8397 l 1.3543,-0.0877"
       fill="#8495d3"
       id="path20" />
    <path
       d="m 194.38,596.05155 c -0.85987,-1.0167 -2.8906,-0.71367 -4.5332,0.67913 -1.6466,1.3941 -2.2806,3.3491 -1.4207,4.3684 0.8599,1.0193 2.8919,0.71368 4.5359,-0.67912 1.644,-1.3928 2.2793,-3.3478 1.4181,-4.3685"
       fill="#1f57af"
       id="path22" />
    <path
       d="m 202.67,589.03155 c -0.86252,-1.0207 -2.8906,-0.71501 -4.5372,0.67779 -1.6466,1.3928 -2.2779,3.3478 -1.418,4.3671 0.8599,1.0193 2.8906,0.71501 4.5346,-0.67913 1.644,-1.39414 2.2792,-3.3491 1.4207,-4.3658"
       fill="#1f57af"
       id="path24" />
    <path
       d="m 210.9,582.05155 c -0.85987,-1.018 -2.8893,-0.71235 -4.5346,0.68045 -1.644,1.3928 -2.2806,3.3464 -1.418,4.3658 0.8626,1.0194 2.8879,0.71501 4.5359,-0.67647 1.6413,-1.3941 2.2779,-3.3491 1.4167,-4.3698"
       fill="#1f57af"
       id="path26" />
    <path
       d="m 189.55,590.10155 c -0.85987,-1.0194 -2.8893,-0.71634 -4.5332,0.67779 -1.6439,1.39413 -2.2806,3.3478 -1.4194,4.3685 0.8612,1.0207 2.8919,0.71367 4.5372,-0.68046 1.644,-1.3941 2.2779,-3.3478 1.4154,-4.3658"
       fill="#1f57af"
       id="path28" />
    <path
       d="m 197.84,583.08155 c -0.86252,-1.0194 -2.8906,-0.71501 -4.5359,0.67779 -1.6453,1.3928 -2.2792,3.3491 -1.4194,4.3671 0.8598,1.018 2.8906,0.715 4.5332,-0.67913 1.6426,-1.39413 2.2806,-3.3478 1.422,-4.3658"
       fill="#1f57af"
       id="path30" />
    <path
       d="m 206.07,576.10155 c -0.85987,-1.0154 -2.8893,-0.71235 -4.5346,0.68178 -1.6453,1.39413 -2.2792,3.3464 -1.4207,4.3671 0.8585,1.0207 2.8919,0.71367 4.5359,-0.67913 1.6453,-1.3941 2.2819,-3.3491 1.4194,-4.3698"
       fill="#1f57af"
       id="path32" />
    <path
       d="m 184.58,584.43155 c -0.85986,-1.018 -2.8893,-0.71368 -4.5319,0.68045 -1.6466,1.3915 -2.2819,3.3478 -1.4207,4.3658 0.8612,1.018 2.8893,0.71368 4.5346,-0.67912 1.644,-1.3941 2.2792,-3.3478 1.418,-4.3671"
       fill="#1f57af"
       id="path34" />
    <path
       d="m 192.87,577.41155 c -0.86253,-1.0194 -2.8919,-0.71368 -4.5372,0.6778 -1.644,1.3941 -2.2766,3.3504 -1.418,4.3671 0.8586,1.0167 2.8919,0.71634 4.5346,-0.67912 1.6453,-1.3941 2.2792,-3.3478 1.4207,-4.3658"
       fill="#1f57af"
       id="path36" />
    <path
       d="m 201.1,570.43155 c -0.85854,-1.0207 -2.8879,-0.715 -4.5332,0.67913 -1.644,1.3928 -2.2792,3.3464 -1.4181,4.3671 0.8611,1.0207 2.8893,0.71368 4.5346,-0.67912 1.644,-1.3941 2.2806,-3.3491 1.4167,-4.3671"
       fill="#1f57af"
       id="path38" />
    <path
       d="m 179.7,578.45155 c -0.8612,-1.0207 -2.8919,-0.71501 -4.5346,0.67647 -1.6453,1.3954 -2.2819,3.3491 -1.4194,4.3684 0.8625,1.0193 2.8906,0.71368 4.5332,-0.6778 1.6453,-1.3955 2.2806,-3.3504 1.4207,-4.3671"
       fill="#1f57af"
       id="path40" />
    <path
       d="m 187.99,571.42155 c -0.85987,-1.0207 -2.8893,-0.71368 -4.5346,0.67779 -1.6453,1.39147 -2.2792,3.3504 -1.4194,4.3671 0.8598,1.0167 2.8893,0.71367 4.5346,-0.67913 1.644,-1.3941 2.2806,-3.3491 1.4194,-4.3658"
       fill="#1f57af"
       id="path42" />
    <path
       d="m 196.22,564.44155 c -0.85854,-1.018 -2.8893,-0.71235 -4.5346,0.68045 -1.644,1.3928 -2.2792,3.3478 -1.418,4.3658 0.8612,1.018 2.8879,0.71633 4.5359,-0.67647 1.6426,-1.3941 2.2779,-3.3491 1.4167,-4.3698"
       fill="#1f57af"
       id="path44" />
    <path
       d="m 197.46,608.75155 18.69,-18.262 3.4076,0.307 6.9507,9.226 -24.042,15.458 -1.7038,-0.15417 -3.6255,-5.1645 0.32295,-1.4101"
       fill="#ffffff"
       id="path46" />
    <path
       d="m 197.14,610.16155 c 7.3255,-6.0895 13.629,-12.972 21.458,-18.637 2.2341,2.6208 5.033,4.9864 6.2742,8.3634 l -0.32029,1.7942 c 0.69374,-0.2153 1.3011,-1.0858 1.959,-1.6599 2.0041,-0.38807 0.78411,-1.9364 0.40667,-3.0288 -1.8965,-3.2893 -4.6887,-5.4436 -6.968,-8.1455 -0.58742,0.80671 -1.5549,-0.18074 -2.2859,0.16347 l -1.959,0.46914 c -6.0988,5.9646 -12.833,11.46 -18.776,17.609 0.11962,1.014 -1.4141,3.3611 0.21132,3.0713"
       fill="#1f57af"
       id="path48" />
  </g>
</svg>
