<?xml version='1.0' encoding='utf-8'?>
<svg xmlns="http://www.w3.org/2000/svg" viewBox="0 0 484 484" height="484" width="484" id="svg2" version="1.1"><metadata id="metadata8"/><defs id="defs6"/><g transform="matrix(1.3333333,0,0,-1.3333333,0,484)" id="g10"><g transform="scale(0.1)" id="g12"><path id="path14" style="fill:#f8f9fc;fill-opacity:1;fill-rule:nonzero;stroke:none" d="m 200.199,1815 c 0,891.83 722.969,1614.8 1614.801,1614.8 891.83,0 1614.81,-722.97 1614.81,-1614.8 C 3429.81,923.16 2706.83,200.199 1815,200.199 923.168,200.199 200.199,923.16 200.199,1815"/><path id="path16" style="fill:#313543;fill-opacity:1;fill-rule:nonzero;stroke:none" d="M 1815,209.672 C 928.402,209.672 209.672,928.398 209.672,1815 c 0,886.6 718.73,1605.33 1605.328,1605.33 886.6,0 1605.33,-718.73 1605.33,-1605.33 C 3420.33,928.398 2701.6,209.672 1815,209.672 Z M 1815,3625 C 815.363,3625 4.99609,2814.63 4.99609,1815 4.99609,815.359 815.363,5 1815,5 c 999.63,0 1810,810.359 1810,1810 0,999.63 -810.37,1810 -1810,1810"/><path id="path18" style="fill:none;stroke:#100f0d;stroke-width:10;stroke-linecap:butt;stroke-linejoin:miter;stroke-miterlimit:10;stroke-dasharray:none;stroke-opacity:1" d="M 1815,209.672 C 928.402,209.672 209.672,928.398 209.672,1815 c 0,886.6 718.73,1605.33 1605.328,1605.33 886.6,0 1605.33,-718.73 1605.33,-1605.33 C 3420.33,928.398 2701.6,209.672 1815,209.672 Z M 1815,3625 C 815.363,3625 4.99609,2814.63 4.99609,1815 4.99609,815.359 815.363,5 1815,5 c 999.63,0 1810,810.359 1810,1810 0,999.63 -810.37,1810 -1810,1810 z"/><path id="path20" style="fill:#6c7c94;fill-opacity:1;fill-rule:nonzero;stroke:none" d="m 1024.48,2662.74 -49.187,-49.19 -238.41,238.4 49.187,49.19 238.41,-238.4"/><path id="path22" style="fill:#6c7c94;fill-opacity:1;fill-rule:nonzero;stroke:none" d="m 657.438,1858.25 v -69.56 H 320.285 v 69.56 h 337.153"/><path id="path24" style="fill:#6c7c94;fill-opacity:1;fill-rule:nonzero;stroke:none" d="M 966.766,1029.85 1015.95,980.66 777.551,742.262 728.363,791.449 966.766,1029.85"/><path id="path26" style="fill:#6c7c94;fill-opacity:1;fill-rule:nonzero;stroke:none" d="m 1771.26,662.809 h 69.56 V 325.648 h -69.56 v 337.161"/><path id="path28" style="fill:#6c7c94;fill-opacity:1;fill-rule:nonzero;stroke:none" d="m 2599.65,972.141 49.19,49.189 238.41,-238.408 -49.19,-49.192 -238.41,238.411"/><path id="path30" style="fill:#6c7c94;fill-opacity:1;fill-rule:nonzero;stroke:none" d="m 2966.69,1776.63 v 69.56 h 337.16 v -69.56 h -337.16"/><path id="path32" style="fill:#6c7c94;fill-opacity:1;fill-rule:nonzero;stroke:none" d="m 2657.37,2605.02 -49.19,49.19 238.4,238.41 49.19,-49.19 -238.4,-238.41"/><path id="path34" style="fill:#313543;fill-opacity:1;fill-rule:nonzero;stroke:none" d="m 1700.13,1815 c 0,63.49 51.47,114.97 114.97,114.97 63.49,0 114.96,-51.48 114.96,-114.97 0,-63.5 -51.47,-114.96 -114.96,-114.96 -63.5,0 -114.97,51.46 -114.97,114.96"/><path id="path36" style="fill:#313543;fill-opacity:1;fill-rule:nonzero;stroke:none" d="m 1854.62,1894.55 h -79.05 v 601.14 h 79.05 v -601.14"/><path id="path38" style="fill:#313543;fill-opacity:1;fill-rule:nonzero;stroke:none" d="m 1901.09,1892.76 c 44.24,-45.53 43.21,-118.32 -2.33,-162.57 -45.53,-44.25 -118.32,-43.21 -162.57,2.32 -44.25,45.54 -43.21,118.32 2.32,162.57 45.54,44.25 118.32,43.21 162.58,-2.32"/><path id="path40" style="fill:#313543;fill-opacity:1;fill-rule:nonzero;stroke:none" d="m 1845.73,1728.05 56.69,55.09 622.59,-640.64 -56.69,-55.09 -622.59,640.64"/><path id="path42" style="fill:#ae2522;fill-opacity:1;fill-rule:nonzero;stroke:none" d="m 1985.83,2085.01 35.71,-25.58 -835.87,-1166.309 -35.71,25.59 835.87,1166.299"/><path id="path44" style="fill:#6c7c94;fill-opacity:1;fill-rule:nonzero;stroke:none" d="m 1845.47,2978.77 h -69.57 v 337.15 h 69.57 v -337.15"/></g></g></svg>