<?xml version="1.0" encoding="UTF-8"?>
<svg viewBox="0 0 180 185" xmlns="http://www.w3.org/2000/svg">
 <path d="m164.07 82.2c6.73 47.93-23.67 91.8-67.87 98.1-44.3 6.2-85.6-27.6-92.27-75.51-6.72-47.92 23.67-91.81 67.914-98.09 44.256-6.2 85.556 27.6 92.156 75.51l0.07-0.01z" fill-opacity=".2"/>
 <path d="m176.07,80.2c6.73,47.8-23.67,91.83-67.91,98.06-44.26,6.24-85.56-27.56-92.26-75.47-6.68-47.89 23.7-91.89 67.9-98.09s85.2,27.6 92.2,75.5h.07z" fill="#c7ca00"/>
 <path d="m160.06 82.47c5.373 38.33-18.957 73.43-54.357 78.43-35.35 4.99-68.4-22-73.8-60.4-5.3-38.3 19-73.5 54.4-78.5 35.4-4.9 68.4 22 73.757 60.5v-0.02995z" fill="#f8f8d3"/>
 <path d="m53.4 90.43 1.9 13.87 83.3-11.7-1.9-13.91-83.3 11.74z" fill="#c7ca00"/>
 <path d="m82.648 55.49 2.8918 18.793 18.833-2.0819-3.523-19.154-18.202 2.4428z" fill="#c7ca00"/>
 <path d="m88.025 110.5 2.8918 18.793 18.833-2.0819-3.523-19.154-18.202 2.4428z" fill="#c7ca00"/>
</svg>
