<?xml version='1.0' encoding='utf-8'?>
<svg xmlns="http://www.w3.org/2000/svg" version="1.1" id="Layer_1" x="0px" y="0px" viewBox="0 0 1656 1725.191" enable-background="new 0 0 1656 1725.191"> <path d="M374.158,873.178c81.728-23.935,68.013,4.324,94.401,6.185c-0.452-5.199-0.729-10.412-1.31-15.591 c1.31,0.007,2.62,0.074,3.937,0.196c1.671,7.688-5.211,22.677,7.191,50.755c0.763,1.182,0.142,2.525-0.223,3.747 c3.794,4.856,18.8,22.859,20.54,25.226c-3.045,0.122-6.084-0.203-9.122-0.068c0.034,0.297,0.094,0.898,0.121,1.195 c4.578,1.33,9.304,2.107,13.957,3.16c-7.646,6.337-12.913,2.128-61.518-23.511c2.134-4.395,4.382-8.73,6.32-13.214 c-1.938-1.026-3.882-2.046-5.881-2.917c-1.735,4.099-3.612,8.136-5.287,12.268c-4.679-2.255-8.805-5.564-13.268-8.231 c2.093-3.419,2.741-6.594-5.314-11.546c-0.844,2.694-2.282,5.26-2.64,8.082c23.436,18.508,52.884,40.639,82.99,51.68 c0,0-23.378,28.861-31.573,53.2c-4.396,15.976-14.368,29.513-22.012,43.997c22.858-17.139,42.291-99.373,59.945-92.321 c130.126,49.005,115.189,33.697,167.803,64.894c-1.85,0.864-3.768,1.607-5.442,2.795c30.906-5.796,121.053,87.358,139.633,112.881 c-1-0.507-55.896-40.941-101.2-18.42c8.651-0.66,45.921-16.69,95.826,19.534c109.801,83.192-2.33,245.928-45.253,328.915 c-45.806,89.797-45.72,142.674-44.421,186.523h178.387c-66.413-44.554-15.602-147.116,29.38-310.107 c45.017-161.18-32.096-129.188,46.961-217.444c106.768-128.018,147.104-55.689,194.859-54.57 c-9.551-7.582-23.352,9.273-58.959-46.211c-8.25-4.54-20.021-19.785-52.396-26.077c-4.207-0.635-4.443-5.766-6.117-8.825 c-8.188,5.767,8.904,9.217-37.143,8.393c8.333-16.203,22.429-15.651,38.568-9.568c-0.027-0.932-0.041-1.837-0.041-2.735 c-7.421-1.512-14.875-2.883-22.302-4.348c2.599-3.376,6.374-5.699,9.473-8.622c-0.236,1.931-0.452,3.876-0.628,5.827 c1.357-0.236,2.741-0.446,4.119-0.655c-0.648,1.013-1.317,2.012-1.978,3.018c22.045,1.035,10.818-16.579,22.775-23.754 c87.447-37.499,108.479,14.953,146.75,10.061c-51.353-18.348-90.896-40.031-137.844-19.162c-15.681,6.2-10.074,5.858-16.813,4.706 c-0.196-0.432-0.581-1.296-0.776-1.729c-5.048,4.013-11.865,14.585-14.753,13.126c8.393-17.78,33.284-23.85,53.2-26.84 c-0.385-0.216-0.756-0.412-1.107-0.601c3.245,0.915,9.889-1.254,20.081-1.242c53.101-2.026,67.177,25.949,129.134,16.178 c-4.804-1.507-19.757-0.144-31.789-1.141c-44.855-3.036-63.781-36.346-153.927-8.744c-0.304-0.587-0.594-1.155-0.871-1.708 c2.331-1.627,22.093-15.976,27.177-20.209c-10.161,1.515-24.487,1.177-42.849,18.17c-7.655,7.663-30.907,36.874-31.688,30.864 c29.088-43.541,93.963-85.576,139.924-124.218c21.233-18.099,24.067-22.479,28.717-23.7c8.545-2.36,29.813,32.96,32.248,56.994 c1.397,10.101-0.662,20.175-1.783,30.189c0.533,1.864,2.181,3.207,3.376,4.706c-0.262-9.523,0.894-27.514,0.446-31.768 c-1.353-28.924-18.048-47.214-21.134-53.119c59.429,29.409,49.718,76.832,70.147,97.136c-22.831-86.21-56.066-92.607-78.122-108.499 c6.75-6.79,6.643-2.487,47.258,8.372c0.678-6.436-22.625-11.833-35.178-16.387c1.505-1.224,65.346-41.355,136.176-28.892 c31.752,5.208,49.767,16.266,84.111,32.937c13.923,6.51,0.155,11.237,21.917,118.121c0.911-0.176,1.837-0.338,2.789-0.486 c-12.06-35.171-10.036-68.491-15.057-113.367c12.438,2.431,24.814,5.233,37.292,7.461c0.095-0.878,0.216-1.735,0.351-2.586 c-45.827-12.913-34.841-0.027-47.872-42.93c-18.164-53.973-69.072-83.713-111.97-103.631c-0.952-0.216-1.148-1.141-1.141-1.951 c77.089,14.03,121.541,48.52,137.709,78.236c8.085,3.788,18.443,24.598,25.658,32.268c-10.517-31.702-74.175-126.7-221.05-115.42 c1.047-1.776,2.788-3.079,3.531-5.03c-6.938,3.057-9.895,8.27-18.325,4.949c2.191-3.802,8.274-5.45,14.936-9.581 c41.756-22.632,41.956-22.864,63.112-16.164c-1.002,0.049-22.448,0.466-27.366,1.04c13.512,9.1,30.158,17.79,46.488,18.798 c-1.216-22.431,3.261-24.932-22.336-29.257c62.541-23.137,121.595-0.196,144.353,5.982c2.762,0.642,5.361,3.322,4.504,6.34 c-6.163,22.987,8.53,56.251,13.18,60.242c5.452-13.826,4.171-24.165,1.31-38.521c9.785,11.473,4.409,32.178,3.558,37.245 c26.152-27.582,8.209-43.244,0.284-53.618c44.383,25.25,97.166,32.817,132.638,26.846c-2.573-1.344-5.699-0.446-8.487-0.668 c-47.294,2.391-85.691-10.656-122.955-32.586c-16.868-9.007-25.454-12-27.042-14.132c21.704,1.061,41.695-1.617,60.006-14.065 c0.25-0.29,0.75-0.871,0.999-1.155c-44.63,17.733-51.389,17.712-109.012,2.519c62.822-29.618,90.401-68.919,84.138-145.359 c-0.115-0.007-0.344-0.014-0.466-0.02c-1.847,53.117-6.698,114.816-90.208,144.886c-3.295,0.175-36.496,0.427-48.649,0.25 c-12.391-6.75-101.787,33.025-102.787,33.382c1.889-3.029,16.694-22.367,37.623-50.31c0.344,1.951,0.702,3.909,1.06,5.881 c-4.924,5.194-2.498,4.999,0.513,11.188c9.837-7.327,5.789-6.549,13.106-0.871c4.115-14.595-2.9-14.708-8.4-16.887 c-4.622-4.209-3.471-3.027,23.214-43.916c0.986-0.831,0.257-2.91-1.04-1.857c-24.312,32.836-25.642,39.749-31.499,36.954 c-11.744,27.779-87.387,96.441-110.12,100.721c-60.893,11.097-85.251,37.569-93.773,41.431 c11.789-22.169,16.438-43.829,13.66-68.365c4.875-0.81,9.797-1.337,14.699-1.999c-0.855,8.3,2.678,14.786,11.681,19.696l0.851-0.047 c1.465-9.046,0.776-14.514-7.184-19.149c3.507-0.573,16.507-3.093,21.627-4.382c-0.196-0.23-0.601-0.695-0.797-0.925 c-1.012,0.099-33.012,3.055-41.721,3.653c-5.117-36.357-27.704-40.151-13.984-48.136c1.107,5.037,1.29,10.256,2.6,15.253 c5.516-15.437,4.579-15.122,6.063-15.854c0.303,2.755-0.747,3.693-3.39,18.109c8.612-5.285,17.687-17.009,20.641-29.345 c-0.176-0.824,0.014-1.539,0.574-2.147c0.115-1.256,0.23-2.498,0.317-3.741c-4.821,0.999-9.629,2.107-14.537,2.539 c1.277-2.686,9.125-10.106,11.208-11.843c95.739-87.132,136.859-27.912,230.847-110.073 c-25.717,16.024-52.367,39.909-117.007,47.339c-0.074,0.108-0.223,0.324-0.297,0.432c-28.602-0.206-71.04,20.849-95.272,36.92 c0.911-3.525,3.585-6.293,5.078-9.588c24.931-50.79,31.323-76.515,59.959-107.514c8.717-9.249,70.865-32.567,125.089,0.493 c3.95,2.215,7.38,5.483,11.85,6.698c-3.912-7.108-19.412-13.961-27.44-17.4c-40.243-17.671-71.688-6.06-97.919-1.067 c1.296-2.086,3.403-3.43,5.213-5.03c77.642-64.384,121.767-19.462,187.256-50.202c-0.054-0.121-0.169-0.371-0.223-0.5 c-37.971,13.515-46.044,8.698-116.635,10.108c32.596-28.516,29.105-16.873,67.231-79.161c-9.382,10.053-31.845,59.855-85.603,84.016 c-17.844,8.099-52.067,14.931-97.25,77.311c0.68-6.033,3.375-29.718,6.448-34.996c-3.659-9.292,0.486-25.982-6.138-56.805 c-9.523-45.424-25.844-64.819-52.092-112.166l0.155-0.412c35.432-20.314,61.728-47.81,79.053-81.126 c-0.865,1-41.661,61.697-80.843,75.117c-12.823-33.692-13.198-55.879-15.374-77.258c-1.114,26.266,2.201,52.828,10.614,77.777 c-16.671,13.511-33.18,27.238-49.945,40.634c25.062-59.032-3.901-113.36-13.032-120.889c0.876,6.511,28.516,39.856,18.555,90.701 c-3.145,18.398-6.915,35.672-22.552,46.272c-1.047,0.756-2.458,1.276-2.789,2.654c2.762-0.891,5.348-2.255,8.096-3.214 c-27.909,40.15-45.911,80.345-49.135,158.046c0.77,1.364-1.472,1.242-0.675-0.061c-23.75-57.853-8.467-103.841,28.514-144.603 c-22.649,10.351-36.24,51.483-41.816,75.698c-6.933-30.508-27.539-24.515-38.811-25.928c-3.76-0.372-33.786-38.148-34.571-39.149 c2.844-4.979,19.404-21.106,19.811-24.105c-3.34,2.116-22.851,23.638-23.565,21.58c-3.173-3.403-6.306-6.853-9.858-9.865 c-7.366-5.974,6.357-14.512,6.097-35.421c-2.585,0.498-8.348,21.661-12.572,27.413c0.113-5.03-45.876-75.76-14.996-159.316 c16.867-45.611,57.034-75.684,77.69-105.778c0.509-4.322-1.779-0.581-67.872,75.617c-0.182-0.925-0.324-1.837-0.466-2.748 c-6.422,25.587-30.841,57.612-21.728,120.977c0.74,6.422-13.195,7.191-6.205,21.1c0.891-2.134,1.377-4.402,2.262-6.536 c0.25-0.155,0.743-0.466,0.992-0.628c0.149,3.68-0.567,7.319-0.56,10.999c2.269-2.329,4.315-4.861,6.475-7.299 c15.192,47.037,14.244,43.484,14.476,45.34c1.404-0.034,0.277,2.107-0.338,0.675c-96.184-76.501-143.04-97.792-203.623-254.878 c1.137,7.064,15.94,66.663,60.067,133.813c-38.611-28.451-69.347-32.238-114.205-21.181c1,0.076,71.035-16.606,109.154,22.829 c-60.869-21.699-93.359-1.526-98.25,3.579c13.95-4.443,27.65-10.331,42.363-11.735c28.511-3.703,63.917,15.084,66.515,17.117 c0,0,40.809,50.834,88.27,87.203c18.763,14.872-11.033-10.29,53.834,42.91c-16.33,29.143-17.444,45.957-25.55,69.925 c0.628,0.695,2.08,0.878,2.093,1.999c1.8,64.664-6.248,28.251,2.559,60.83c-0.581,0.317-1.148,0.648-1.702,0.986 c-2.073-4.031-3.869-8.19-6.016-12.174c-8.713-6.415-23.265-25.414-23.875-26.414c1-0.812,20.919-18.981,25.807-23.99 c-2.742,1.589-3.06,2.263-28.804,21.519c-21.808-18.52-24.344-16.673-24.476-30.749c-2.816,1.398-5.01,3.734-7.738,5.267 c-1-0.031-36.873-28-46.124-61.68c-13.416-37.117,18.446-51.098,5.267-76.17c-2.634,55.528-38.029,45.581,19.405,124.461 c1.992,0.027,0.655,2.681-0.223,0.655c-11.03-4.193-7.634,0.059-17.184-8.974c-0.567,0.702-1.101,1.425-1.634,2.147 c-7.032-5.714-30.993-59.339-38.662-78.891c-0.844,0.263-1.695,0.533-2.519,0.81c0.559,3.152,13.21,31.947,30.81,74.989 c-79.991-13.601-61.433,15.504-140.511-4.618c-0.932-0.304-2.782,0.074-2.235,1.377c40.925,11.331,41.598,13.366,85.61,5.645 c28.85-4.667,60.332,2.578,64.003,6.968c3.774,4.2,3.909,10.283,3.72,15.631c-19.892-11.074-42.663-18.504-65.137-14.828 c39.822,1.086,63.407,14.251,63.983,20.425c-9.5-0.958-28.8-11.276-57.764-2.397c-3.491,1.107-7.373,1.985-9.885,4.861 c33.868-10.53,52.493-4.656,54.267-2.836c-19.459-0.465-27.996,17.043-27.67,31.174c27.654-7.351,24.615-7.428,34.213-25.543 c-1.539-0.959-3.444-0.831-5.138-1.256c1-0.905,10.796-1.753,11.796-1.837c-20.789,49.454-54.914,62.444-85.157,78.689 c-6.014-29.616-9.04-25.983-19.338-52.612c-21.249-14.318-53.259-40.136-54.942-65.117c-0.761-1.746-4.261-7.943-5.422-9.392 c4.514,64.794,52.068,51.241,69.108,107.642c9.512,30.515,7.324,19.019-34.611,61.788c-6.728-18.248-6.512-17.406-7.36-18.46 c-1.077,10.113,9.895,17.738,0.615,28.744c-28.249,35.763-37.62,70.826-48.939,106.636l-0.804,0.621 c-5.607-39.967,3.127-102.951,15.807-140.66c0,0,25.149-0.635,25.152-0.635c-1.539-14.137-9.117-18.018-23.173-16.327 c12.831-92.752-22.842-180.976-29.588-187.566c15.971,39.701,21.443,71.171,24.706,106.791c-24.042-15.385-24.327,4.399-28.42,7.306 c0.203-11.303,1.087-22.586,1.114-33.889c-0.243,0.162-0.743,0.493-0.993,0.655c-1.999,12.842-3.761,25.739-5.834,38.575 c-41.399-50.618-55.791-63.904-57.811-98.621c3.125-2.601,4.12-15.294,15.064-22.255c-10.82,18.707-11.279,18.604-12.89,22.039 c2.728-0.729,4.848-2.728,7.231-4.146c8.389-6.096,14.452,2.418,34.051-32.869c-24.771-4.252-34.696,3.103-43.139,17.677 c0.526-24.085,23.082-46.167,22.194-64.948c-0.56,0.999-1.08,2.026-1.587,3.059c-0.142-0.155-0.432-0.466-0.574-0.621 c-0.258-19.1-6.156-25.571-29.466-19.385c5.827,11.195,16.259,19.014,26.61,25.773c-0.25-3.335-1.161-6.57-1.398-9.899 c9.977,6.927-6.516,30.326-14.26,42.748c-0.209-1.465-0.378-2.93-0.614-4.375c-0.128,0.196-0.392,0.594-0.52,0.797 c-10.218,63.714,1.024,69.79,9.642,93.631c-80.373-55.935-110.023-23.966-168.802-61.16c-3.092-1.29-5.726-3.444-8.784-4.767 c-1.283-0.162-1.337,1.452-1.823,2.269c66.55,33.171,39.436,18.928,104.516,34.679c74.223,18.067,120.641,81.622,127.574,106.805 c-8.19-3.72-15.827-8.622-24.037-12.289c-0.405,0.756-0.803,1.519-1.202,2.282c6.753,4.611,31.066,12.377,37.272,37.197 c4.086,19.099,11.395,31.399,7.225,44.8c-20.052,90.46-19.699,96.061-6.718,181.253c0.297,0.54,0.959,1.843-0.054,2.032 c-16.507-18.862-48.821-46.359-82.45-65.779c0.02-2.424,2.525-4.375,3.261-6.745c-2.215,1.472-4.18,3.275-6.198,4.99 c-41.555-20.846-35.76-14.68-33.74-27.704c2.937-15.773,3.464-32.336-0.831-47.906c0.655,18.373,1.431,37.346-4.753,54.969 c-24.897-15.499-49.757-41.906-53.45-51.363c-4.538-11.29-14.171-90.1,38.581-129.694c2.579-2.748,6.34-4.294,8.339-7.583 c-31.477,16.237-59.227,56.9-51.181,130.964c-0.668,0.142-1.323,0.29-1.978,0.452c-1.783-6.205-3.491-12.431-5.145-18.67 c-10.911,0.573-29.441-55.193-16.212-108.472c6.268-26.724,3.928-56.111-2.849-75.927c3.288,18.933,4.821,38.379,2.012,57.474 c-6.039-18.291-4.603-19.371-31.053-22.815c2.748,15.321,12.653,29.365,26.522,36.576c-2.768-8.062-6.637-15.726-9.466-23.767 c18.122,13.261,10.199,31.017,3.612,71.484c0.52,1.567-1.452,1.303-1.35-0.047c-12.244-27.577-32.283-49.751-55.435-69.607 c0.317,2.768,2.397,4.767,4.321,6.577c15.26,14.159,29.358,29.81,40.128,47.703c6.457,10.126-3.373,9.666-4.463,18.561 c-0.898,5.449,3.011,10.236,7.279,13.065c-1.225-6.718-4.201-8.43-0.236-13.659c2.722,12.115,2.558,12.674,3.558,13.268 c1.778-0.281,1.658-1.965,3.828-8.575c1.616,3.971,19.271,62.649,19.878,64.685c-6.038,7.936-7.185,17.317,1.168,23.72 c1.047-5.429,0.668-10.992,1.296-16.455c0.317-0.02,0.952-0.054,1.263-0.074c0.864,6.563,1.222,13.187,2.08,19.763 c0.601-0.088,1.209-0.169,1.823-0.236c1.195-2.566,2.188-5.22,3.336-7.799c2.122,1.972,40.257,43.628,41.201,45.253 c-13.133-0.458-23.242-11.843-26.353-13.383c2.397,2.654,5.017,5.105,7.279,7.886c-23.822-2.734-50.208-5.948-51.208-6.104 c4.236-4.232,11.893-10.343,17.171-14.929c1.188-0.466,1.263-2.687-0.23-2.465c-15.153,4.224-22.334,6.753-24.301,6.739 c-0.162-0.344-0.479-1.04-0.641-1.391c7.758-2.944,15.537-5.847,23.301-8.784c0.02-0.777,0.054-1.546,0.088-2.303 c-11.065-0.189-23.74-6.256-35.928,12.356c-7.147,10.113-4.109,11.719-13.903,13.005c-85.746,8.987-79.079,48.414-224.939,30.06 c37.144,11.71,74.45,10.005,79.256,10.466c-3.417,2.174-7.286,3.552-10.702,5.76c-15.575,8.928-28.814,23.705-28.257,26.218 c2.107-0.439,3.18-2.465,4.605-3.856c34.342-38.103,58.006-24.144,111.031-43.666c50.276-19.431,102.133-24.469,157.405-10.27 c12.741,2.516,14.482,9.203,24.476,22.471c0.614-0.432,1.236-0.851,1.864-1.263c-3.963-5.861-7.893-11.742-11.965-17.522 c26.75,9.179,22.564,2.245,20.391,34.415c-7.824-16.228-6.525-13.61-8.811-13.112c0.225,1.002,23.176,74.594,32.505,78.385 c0.84-1.25,1.847,0.931-13.909-34.348c5.631,0.128,11.256,0.493,16.887,0.729c0.162,11.769,0.763,23.517,0.864,35.28 c-1.074,0.223-2.336,0.054-3.234,0.763c-4.078,5.638,22.063,30.595,33.389,43.274c-22.16-3.255-44.314-6.556-66.447-9.959 c-0.184-5.274-2.116-56.276-4.321-61.194c-0.149,0.324-0.446,0.979-0.594,1.31c-0.057,9.495,1.866,54.981,1.472,62.2 c-60.473,1.069-79.522,24.271-132.631,30.844c0.311,0.122,0.932,0.371,1.242,0.493c-2.404-0.594-4.848-0.068-7.258,0.162 c-26.248,1.952-37.742-0.555-55.644-1.404c0.061,0.493,0.189,1.479,0.25,1.965c22.114,2.068,49.168,3.613,50.782,4.537 c-7.373,3.065-14.449,7.11-20.324,12.559c8.599-4.818,16.276-11.328,47.103-16.84c113.148-20.28-8.584-34.502,171.017,51.518 c2.265,1.063-0.165-0.354,5.192,2.748c-185.504,18.637-138.097,82.222-238.977,73.652c30.408,10.217,57.85-4.975,60.188-5.834 c0.128-1.445,2.194-0.311,0.641,0.304c-40.547,56.45-59.6,94.797-117.277,124.225c-1.492,0.979-3.579,1.398-4.436,3.113 c3.864,0.188,33.322-14.564,57.636-35.995C254.821,977.593,271.081,903.481,374.158,873.178z M535.999,461.071 c4.774-0.086,10.771,4.965,14.956-3.309c-3.432-1.745-1.031-0.721-4.517-2.174l0.034-0.034c-0.196-0.189-0.594-0.56-0.79-0.743 c-1.526-0.29-3.052-1.202-4.247-2.107l-0.56,0.257l-0.608-0.358l-0.02-0.594c-22.548-3.701-11.261-23.283-9.919-27.029 c0.203,0.047,0.601,0.142,0.797,0.189c-0.628,4.504-2.809,8.859-2.363,13.45c2.458-0.648,0.04,0.96,16.813-9.662l0.709-0.189 c0.203-0.196,0.608-0.574,0.81-0.763l-0.074-0.101c0.338-0.081,1.006-0.236,1.337-0.317l0.101-0.594 c1.686-0.667,3.097-1.825,4.99-2.687c1.762,24.591,0.257,49.311-3.335,73.679C545.256,485.743,540.638,473.393,535.999,461.071z M476.527,864.623c0.236,2.924-0.446,5.834-0.452,8.764c11.876,1.335-4.364-19.706,76.17,8.622l0.088,0.56 c3.448,0.696,27.299,23.3,34.875,27.467c3.376,2.019,7.164,3.322,10.445,5.503c-35.552,7.996-46.756,8.131-81.383,31.694 C500.342,959.298,460.197,881.803,476.527,864.623z M584.628,799.033c-19.29-26.072,13.935-137.39,20.506-136.433 c-11.149,56.986-18.911,71.323-20.202,118.27C584.621,786.913,585.249,793.017,584.628,799.033z M601.035,718.622 c5.024,7.684,9.311,15.854,14.179,23.646c0.756-0.135,1.519-0.257,2.296-0.365c-0.797-8.872-1.958-17.704-2.647-26.583l0.831,0.432 c7.573,23.251,5.088,24.717-20.513,90.674C592.136,777.089,595.006,747.4,601.035,718.622z M693.539,556.66l0.587-0.405l0.581,0.209 c13.628-9.39,33.929-13.921,49.425-22.174l0.655-0.007l0.013-0.574c0.304-0.034,0.905-0.094,1.209-0.128 c0.883-0.737,8.154-4.652,8.96-4.686l0.027-0.601l0.601-0.365l0.554,0.257c3.094-2.024,21.476-12.633,22.478-12.748l-0.034-0.601 l0.574-0.419l0.581,0.196c1.137-0.894,11.266-7.079,12.329-7.367l0.122-0.587c1.765-0.66,5.117-2.881,7.88-4.517 c-0.776-1.168-1.512-2.343-2.201-3.545c2.647-2.512,5.307-5.01,7.826-7.657c1,0.616,27.088,20.43,28.143,21.728 c13.919,8.201,16.112,12.925,27.812,40.661c-26.525-13.892-26.829-5.752-31.856-5.483v0.594l-0.608,0.385l-0.581-0.243 c-27.977,19.96,9.611-2.949-99.344,10.439c-4.701,0.843-34.983,2.805-40.742,0.844c1.6-0.966,3.167-2.282,5.03-2.613L693.539,556.66 z M864.049,557.484c4.072,6.907,8.224,13.774,12.262,20.715c-5.246-1.972-10.459-4.234-15.456-6.712 c-0.297-0.034-0.891-0.101-1.188-0.135v-0.587c-1.789-0.068-3.417-1.114-4.949-1.924c-0.29-0.034-0.878-0.101-1.168-0.142 l0.007-0.567c-1.897-0.142-3.687-1.283-5.375-2.107l0.04-0.439c1.612-0.755,10.942-6.001,13.356-8.123 c-0.998-0.127-23.147-3.317-23.929-3.95c6.894-2.377,15.118-2.228,21.343,1.661l0.56-0.256l0.615,0.371l0.027,0.608 c0.797,0,1.492,0.236,2.1,0.702l0.594-0.257l0.648,0.351l0.02,0.594L864.049,557.484z M863.624,538.423 c21.124,18.839,41.6,44.163,56.67,68.203c-2.997-1.094-5.617-3.071-7.94-4.166l-0.047-0.587 C894.706,598.46,870.199,551.308,863.624,538.423z M692.168,565.485c4.234,0.702,8.562-0.088,12.795,0.5 c4.694,1.317,6.028,9.941,10.067,12.815c-1.776-4.085-3.822-8.048-5.537-12.154c0.69-0.6,26.306-2.783,27.218-2.849 c22.336-2.834,12.444-0.831,18.183,0.243c9.912-5.065,14.492-1.916,36.779-2.161l0.324,0.601 c17.871,0.048,16.427,0.967,18.973,2.849c15.17,0.595,36.14,8.682,43.051,11.586l0.061,0.574l0.709-0.122 c33.556,14.437,61.914,37.433,70.924,46.346c-11.628,13.678-1.84,3.388-20.641,23.781c-20.179-14.309-60.484-41.188-62.112-43.753 c-1.301-1.951-1.422-5.017-4.247-5.03l0.027-0.04c-0.324-0.108-0.959-0.311-1.276-0.412l-0.02-0.5l-0.817-0.034 c-8.875-7.912-10.207-11.073-14.206-14.017c17.702,31.732,72.462,62.484,74.793,63.355l0.128,0.587 c2.498,1.242,4.733,3.072,6.934,4.814c-15.701,31.495-18.05,63.659-8.42,95.832c-9.675-9.247-7.548-25.122-80.019-75.914 c-12.133-7.761,0.087-35.278-34.679-32.943c1.064-0.714,10.508-5.096,11.6-5.253l0.027-0.594c0.29-0.02,0.885-0.068,1.182-0.088 c5.869-4,12.298-3.902,42.781-28.953c-0.304-0.304-0.594-0.587-0.878-0.857c-2.363,1.755-4.794,3.747-7.481,4.834l0.041,0.608 l-0.56,0.432l-0.581-0.196c-1.739,1.468-16.145,11.504-23.119,14.598c10.806-15.559,8.863-28.917-3.484-39.5 c-16.72,33.849-3.013,36.557-2.546,42.268c-1.654,0.594-3.025,2.026-4.781,2.194l-0.108,0.581 c-26.041,9.159-24.908,8.319-24.908,8.319c-1.004-0.369-26.95-15.381-16.097-25.901c0.054-0.689,0.135-1.344,0.203-2.005 c-0.311,0.608-0.587,1.229-0.837,1.87c-1.837,2.134-2.275,5.165-3.781,7.569c-2.363-1.263-3.997-3.552-6.414-4.727 c4.966,12.351,11.888,13.361,23.578,24.031c-12.593,3.072-25.172,6.205-37.724,9.453c5.404-7.504,14.238-17.039,17.528-22.221 c-1.328,1.066-19.94,19.452-20.931,20.452l-0.662,0.054l-0.061,0.574c-0.324,0.007-0.972,0.027-1.296,0.034 c-15.566,12.382-2.635,2.653-23.079,14.22l-0.641,0.054l0.007,0.601l-0.594,0.392l-0.574-0.23 c-48.315,36.162-27.482,15.53-68.196,64.753c-0.984-10.697-0.398-20.694-17.549-32.626c-4.4-2.902-3.476-4.837,0.533-38.365 c5.618-38.965,55.639-83.266,66.94-89.101l0.061-0.608C686.211,562.467,687.71,565.164,692.168,565.485z M975.979,797.608 c0.687-86.843-50.091-116.737-44.003-142.489c0.169,0.088,0.513,0.263,0.689,0.351c0.729,5.037,1.094,10.121,1.695,15.179 c0.567,0.034,1.715,0.095,2.289,0.128c2.208-5.408,4.416-10.817,6.536-16.259C942.992,630.923,987.605,770.767,975.979,797.608z M952.785,615.761c3.707,0.074,7.407-0.398,11.121-0.108c1.526,11.06-0.81,22.113-0.939,33.18c-0.142,0.122-0.439,0.371-0.587,0.5 C952.468,642.214,952.322,628.491,952.785,615.761z M973.042,682.06c9.509,10.656,6.2,18.152,3.403,20.479 C975.445,695.692,973.919,688.913,973.042,682.06z M924.042,822.51c9.288,11.869,10.962,12.669,27.11,48.905 c2.35,6.069-0.228,6.033-29.291,47.082C929.753,840.413,924.022,832.441,924.042,822.51z M958.565,944.183 c4.392,26.496-20.791,64.91-38.136,85.819C920.734,1012.885,957.565,945.099,958.565,944.183z M956.418,867.135 c0,0-10.304-24.033-26.05-44.449c-6.07-8.2-17.116-17.104-13.572-33.159l0.675-0.648c-0.041-0.453-0.128-1.35-0.176-1.796 c-0.898,0.675-1.85,1.269-2.836,1.81c-0.874-1.017-39.47-71.809-7.853-135.622c5.188,5.697,26.594,29.767,31.147,34.618 c-0.162,0.567-0.317,1.148-0.452,1.742c-29.769,1.556-46.365,14.074-39.439,43.186c0.142,0.196,0.432,0.587,0.574,0.776 c2.201-9.568,6.367-19.628,15.003-25.064c-5.442,6.766-10.891,14.166-12.012,23.031c2.228-0.533,3.957-2.404,6.219-2.741 l-0.027-0.588l0.581-0.398l0.594,0.216c2.134-1.323,4.45-2.849,6.901-3.369l0.027-0.587l0.621-0.351l0.567,0.256 c14.612-9.257,13.8-11.404,21.58-24.929c1.026-1.661,1.627-4.24,4.072-4.085c21.105,53.908,16.856,35.953,16.306,45.86 c0.965,1.249,2.491,2.066,3.187,3.565C965.721,769.049,977.555,816.868,956.418,867.135z M915.588,921.442 c-4.318-4.869-10.968-20.644-8.271-28.311c-10.288-11.766-10.077-28.27-11.546-42.052c1.148,0.216,2.235,0.668,3.16,1.438 c0.625,0.25,0.036,0.097,1.918,0.432c-9.23-8.43,1.757-40.916,4.726-45.779c19.275-7.734,15.043,85.522,14.571,91.201 c-14.104-38.097-12.646-38.732-18.744-42.579C914.762,876.623,917.921,897.129,915.588,921.442z M833.287,843.448 c2.579-3.707,5.408-7.238,8.123-10.857l0.007-0.479c0.29,0.007,0.871,0.027,1.161,0.034l-0.013,0.527 c17.487,11.078,32.774,27.136,40.573,38.993c-11.335-10.895-20.316-15.689-29.02-20.621l-0.587,0.223l-0.594-0.398l0.013-0.594 C852.949,850.275,842.786,846.188,833.287,843.448z M784.726,844.603c0.668-0.824,2.768-0.905,3.862-0.533 c2.823-2.468,36.618-2.133,38.561,0.891c-14.744,36.67-20.095,38.208-14.483,95.029c-22.873-28.758-29.191-34.89-25.597-50.803 c-3.262,1.515,0.187,0.255-10.547,8.629c-20.989-14.724-34.809-29.616-41.228-39.527c-0.04-1.594,2.215-0.932,3.174-1.459 c-0.513-1.033-1.864-0.972-2.512-1.749c-0.304-0.007-0.898-0.027-1.202-0.034l-0.047-0.574 c-5.601,0.257-17.015-23.151-21.654-27.987c5.622,24.29,35.642,60.284,50.377,78.723c-23.834,19.996-9.209,49.329,3.092,57.953 c-1.766-8.24-6.234-24.446,2.316-38.426c-3.909,13.909-2.951,29.365,3.579,42.342c5.206-11.83,10-23.848,14.949-35.793 c2.317,2.276,20.071,26.461,30.979,58.845c-0.083-0.061-6.167-5.309-6.212-5.348c-0.284-0.061-0.844-0.189-1.121-0.256l0.061-0.581 c0,0-8.936-5.718-29.162-3.943c-6.675,0.58-51.9-38.615-55.246-41.593c-20.896-18.607-48.663-18.803-50.134-62.416 c0.257-10.445-2.701-21.445,1.715-31.397c0.466-1.594,1.985-2.809,2.127-4.456c-18.915,26.481-0.395,36.201-11.404,60.701 c-2.124-0.591-3.956-1.526-6.421-2.586l-0.074-0.601l-0.648,0.108c-78.012-48.768-27.292-123.71-25.786-162.854 c1.388-11.864,21.827-35.169,38.69-49.601c15.018,17.077,33.028,18.787,36.596,18.291c-0.02,0.142-0.047,0.412-0.068,0.547 c3.572,0.277,7.151,0.452,10.722,0.783c0.479-0.702,0.871-1.445,1.114-2.255c-2.175-1.291-19.678-12.053-21.465-13.545 c13.269,2.805,19.78,10.903,23.585,13.416c-2.611-24.175-20.341-24.66-44.462-21.35c1.347-1.969,7.136-6.497,8.136-6.367 l-0.061-0.581c0.277-0.068,0.817-0.209,1.094-0.277l0.047-0.351c3.261-1.83,6.165-4.463,9.655-5.766 c0.189-0.196,0.574-0.587,0.77-0.783l-0.088-0.101c0.351-0.061,1.047-0.176,1.391-0.236l-0.027-0.614l0.587-0.398l0.587,0.223 c14.847-9.041,38.411-16.669,47.177-18.494c-0.034-0.149-0.101-0.446-0.135-0.594c3.936,0.182,7.637-1.864,11.573-2.127 c-0.034-0.142-0.108-0.425-0.148-0.567c11.781,1.507-1.721-7.182,26.718,12.633c6.71-1.96,7.49-5.152,14.848-0.837 c-3.012,3.474-5.638,4.228-8.271,5.152c10.486,8.397,50.334,30.523,76.785,61.383c-0.155,0.662-0.459,1.269-0.844,1.843 c-8.033-1.581-25.148-17.247-35.685-19.21c-0.054,0.446-0.162,1.344-0.209,1.789c2.876,1.452,5.76,2.917,8.575,4.497 c0.054,0.338,0.162,1.02,0.209,1.357l-0.898-0.155v0.479c-0.317,0.094-0.966,0.284-1.283,0.371l0.027,0.04 c-14.643,5.69-10.76,7.339-9.743,24.031c1.776-3.99,2.62-8.373,3.97-12.532l1.114-0.918c-0.831,4.652-2.073,9.244-2.728,13.923 c8.165-4.738,12.875-14.717,14.942-23.99c1.002,0.743,8.228,6.094,10.635,7.427l0.007,0.588c2.471,0.999,4.855,2.924,6.874,4.747 c-23.126,19.3-6.475,39.127,0.547,43.645l0.952,0.304c-0.297-1-6.776-21.118-2.302-24.503c1.492,8.542,2.802,17.117,4.22,25.671 c1.155,0.115,2.33,0.236,3.518,0.344c2.613-10.418,5.071-20.877,7.515-31.336c13.416,9.948,34.495,48.736,26.509,56.751l0.081,0.513 c-0.284,0.034-0.857,0.101-1.148,0.135l-0.061-0.52c-4.046-1.913-8.648-5.172-11.33-6.239l-0.074-0.574 c-4.331-1.202-17.988-11.446-23.578-14.348c-16.344-9.105-29.355-28.633-36.407-32.876c15.697,28.113,51.57,47.004,52.572,47.704 c0.29,0.047,0.871,0.149,1.161,0.196l-0.007,0.581c1.08-0.203,1.931,0.675,2.802,1.195c-7.4,0.594-14.848-0.378-22.262-0.419 l0.263-0.027l-0.56-0.911l0.567,0.007c0.007-1.087,0.149-2.161,0.371-3.201c-0.311,0.189-0.939,0.567-1.256,0.763l0.203,0.594 l-0.425,0.581l-0.608-0.04c-0.232,1.504-10.447,15.665-25.07,38.088c-0.476-0.268-12.611-8.509-13.801-9.284 c3.207-3.005,6.934-5.415,10.02-8.562c-0.533-0.79-0.554-1.58-0.074-2.377c-5.05-5.037-13.748-5.425-21.782,0.999 c-4.19,2.44-10.009-6.353-33.639-22.451c-1.951,1.707-2.215,0.99,30.486,25.543c-0.804,1.972-1.654,3.93-2.167,6.009 c4.814-0.614,10.094,0.088,14.328,2.464c0.297,0.034,0.891,0.101,1.188,0.135l0.007,0.581c4.51,1.641,8.211,5.26,12.052,8.15 c-1.361,2.874-5.538,9.496-8.656,9.595l-0.108,0.567c-10.585,3.604-25.309-2.663-48.541,4.537 C782.802,844.61,783.753,844.556,784.726,844.603z M823.024,1003.865c1.757,0.424,1.437,21.303,1.364,22.37 c-0.101-0.034-0.29-0.095-0.385-0.122c-5.246-5.01-9.986-10.668-14.922-16.036c3.619,0.52,7.11,2.228,10.776,2.134 c0.094-0.108,0.284-0.317,0.378-0.419c-0.013-0.371-0.04-1.121-0.054-1.492c-0.13-0.207-17.002-16.582-17.177-16.752 c12.237,5.642,16.74,14.911,20.621,17.522C823.375,1008.665,822.814,1006.275,823.024,1003.865z M684.376,910.321 c-1.796-0.779-12.297-6.829-13.106-7.434c1.182-3.808,2.323-7.623,3.531-11.411C675.456,892.833,680.153,902.213,684.376,910.321z M648.725,948.227c3.801-4.139,6.306-9.244,10.061-13.396c0.152,2.477,0.992,32.224,0.858,34.712 c-0.088-0.04-0.263-0.121-0.351-0.162c-5.165-6.813-12.188-13.349-12.444-22.518C647.321,947.201,648.259,947.883,648.725,948.227z M641.825,944.169c-3.97-6.036-7.4-12.451-11.006-18.71c5.908,0.689,11.769,1.62,17.664,2.37 C646.693,933.407,643.864,938.653,641.825,944.169z M618.422,850.261c-0.27-0.034-0.797-0.094-1.06-0.128 c-13.612-19.471-14.994-20.141-14.936-23.484c1.809-33.981,23.932-82.385,31.458-89.85 C629.527,790.046,605.808,769.596,618.422,850.261z M620.393,876.439c-13.22-2.404-15.475-8.401-16.32-21.985 C609.779,861.557,614.985,869.093,620.393,876.439z M781.775,649.069c-3.092-2.424-6.401-4.585-9.345-7.198 c2.296-0.54,4.544-1.249,6.826-1.857c3.945,1.298,6.614,2.684,13.477,5.199c-0.068,0.425-0.196,1.276-0.263,1.702 c-2.713-0.466-8.446-3.783-12.073-4.814C780.783,644.437,781.343,646.74,781.775,649.069z M844.772,829.026 c1.539-1.29,3.045-3.018,5.179-3.194c1.895-1.544,9.56-0.345,15.584-0.689c2.086-2.674,4.963-4.936,8.157-6.009 c0.169-0.209,0.5-0.628,0.668-0.837c0.365-0.115,1.107-0.351,1.479-0.473l0.101-0.587c2.029-0.781,15.321-8.806,16.117-8.784 l-0.02-0.594l0.587-0.398l0.581,0.209c2.019-1.742,4.727-2.708,6.921-4.315c-14.223-3.679-25.157,2.11-29.027,2.863 c2.215-1.357,4.362-2.816,6.671-4.017l0.203,0.081c5.017-2.134,10.607-3.14,16.043-2.552c12.719,2.678,15.677-3.045-0.594,42.558 c-2.574,3.722,2.475,28.018,4.396,41.201c-1.155-0.385-1.641-1.458-2.35-2.289C869.066,847.376,844.778,829.033,844.772,829.026z M948.856,604.553c0.189,0.074,0.554,0.216,0.736,0.29c0.23,10.013,0.54,20.027,0.79,30.047 C936.909,612.233,936.744,613.785,948.856,604.553z M936.236,610.434c-0.27-3.214-1.114-6.367-1.155-9.595l0.952,0.135 c0.581,1.634,0.675,3.403,1.155,5.084c3.525-2.086,6.57-4.821,10.074-6.914C943.764,603.034,940.105,606.875,936.236,610.434z M935.203,633.823l0.533-0.074c0.061,0.284,0.189,0.844,0.257,1.128l-0.486,0.068c-15.375,10.259-13.062,12.737-6.664,33.781 c-6.254-5.943-16.026-17.291-18.892-20.851c4.854-10.028,3.113-9.494,14.038-18.244c1.377-1.101,2.39-3.146,4.254-3.39 C928.779,626.952,934.883,633.054,935.203,633.823z M599.563,900.99l0.068,0.567c3.687,1.553,7.177,4.065,10.054,6.88 c-14.213-3.133-28.345-8.899-39.128-18.919C585.949,893.776,597.657,900.265,599.563,900.99z M640.792,986.066 c-0.304-0.007-0.925-0.034-1.229-0.047l-0.041-0.574c-1.891-0.243-3.882-1.114-5.476-2.086c-0.304-0.02-0.905-0.054-1.202-0.068 l-0.02-0.574c0,0-7.672-2.84-12.242-3.457c0.905-0.088,1.843-0.122,2.714-0.466c0,0-6.657-0.741-24.564,1.431 c0.263-1.911,0.641-3.781,0.864-5.685c-17.159-4.886-65.565-9.159-67.136-13.963c1.833-9.267,3.436-10.918,0.162-14.267 c-6.876-3.426-7.275,9.634-7.434,10.635c-2.526-0.246-3.038-1.366-8.467-3.335l-0.088-0.601l-1.215,0.014 c0.669-1.689,17.262-12.559,18.75-12.289l0.074-0.581c1.001-0.405,28.395-13.906,51.734-15.901 c-0.047-0.142-0.155-0.432-0.203-0.574c3.923,0.284,7.832-0.783,11.769-0.891c-0.371-0.229-0.743-0.446-1.101-0.641 c21.873,4.017,13.95-11.086,30.054,18.372c1.134,1.512,1.607,3.592,2.991,4.868c1.769,0.148,3.403-1.047,5.172-1.249 c4.742,24.943,24.546,42.334,27.454,50.087C661.258,993.923,641.38,986.758,640.792,986.066z M662.115,936.823 c1.639,0.788,2.631,1.464,9.081,6.07c-8.168,5.92-6.053,7.763-8.46,18.886C662.601,953.46,662.324,945.142,662.115,936.823z M683.998,1010.137c1.83-1.607,4.153-2.518,5.969-4.152c-10.764-10.765-25.9-26.299-26.88-41.532 c1.026,0.608,2.019,1.263,3.005,1.978c1.404-3.471,2.201-7.151,3.342-10.709c0.176,0.027,0.533,0.074,0.709,0.095 c-2.086,17.682-2.348,15.385,0.297,16.117c4.625-6.32,9.493-12.478,14.017-18.865c21.138,12.55,4.548,12.363,17.353,19.77 c2.735,1.472,6.009,1.026,8.832,0.034c-1.756,4.74-3.072,9.635-4.585,14.463c-4.835-10.323-14.3-8.437-23.383-7.785 c0.272,6.119,15.962,13.842,22.208,17.022c-0.776-2.174-1.769-4.254-2.6-6.394c0.371-0.128,1.121-0.378,1.499-0.5 c11.241,29.308,13.342,33.45,13.342,33.45C699.064,1011.626,696.926,1016.388,683.998,1010.137z M721.486,1023.02 c-2.508-4.051-6.144-7.951-9.196-16.752l0.047-0.75l-0.554-0.007c-0.265-2.977-5.248-13.989-0.824-32.592 c2.539,1.864,4.443,4.463,6.867,6.489c-1.425,3.727-5.077,6.3-6.678,10.034c-0.358,1.89,0.094,4.976,2.573,4.996 c15.82,2.463-2.304-29.17,66.751,48.635c4.146,4.841,8.035,9.959,11.519,15.293c-18.225-12.836-26.971-20.304-51.91-28.75 c18.129-4.539,15.782-4.337,16.225-6.3c-5.76-0.925-11.587-1.452-17.36-2.242l-0.446-0.513c5.408-0.115,10.81-0.236,16.219-0.358 c0.263-0.088,0.783-0.27,1.04-0.358c-1.269-3.248-4.443-5.165-7.441-6.556c-9.771-0.918-8.551,1.542-12.39,1.85l-0.007,0.588 c-0.297,0.027-0.884,0.094-1.182,0.128C733.849,1016.489,723.038,1022.628,721.486,1023.02z M730.567,1031.366 c39.677,4.953,90.376,52.117,97.98,81.039C789.223,1072.844,770.725,1059.223,730.567,1031.366z M818.054,939.429 c6.489,7.569,12.275,15.759,18.534,23.538c0.905-0.243,1.762-0.601,2.579-1.067c-0.276-1.006-5.786-21.749-5.597-23.524 c1.404-0.45,8.495,25.444,8.818,26.819c-0.694,1.498-7.805,11.577-8.946,12.687C826.65,965.81,821.045,952.994,818.054,939.429z M857.331,1047.307c-0.243,0.014-0.729,0.034-0.972,0.047c-7.788-14.112-2.074-28.226,9.122-39.574 c-3.309,6.847-6.779,13.632-10.31,20.371c0.122,0.257,0.371,0.763,0.5,1.02c0.493-0.013,1.486-0.041,1.985-0.054l-0.128-0.291 c7.205-4.655,7.714-6.093,9.372-5.51C863.854,1031.366,860.451,1039.286,857.331,1047.307z M851.22,1023.891 c-16.946-41.505-14.576-39.835-13.356-41.971c6.502-10.902,16.486-16.246,23.362-16.759c1.182-1.236,1.134,1.769-0.061,0.601 c-6.198,4.774-13.268,8.494-19.696,13.018c-0.736,1.344-0.891,2.91-1.296,4.389c16.354-2.485,32.633-5.422,49.007-7.812 C881.922,1002.825,853.097,977.555,851.22,1023.891z M891.173,971.934l0.034,0.52c-0.29,0.007-0.871,0.027-1.161,0.034l-0.007-0.52 c-11.614-9.575-8.944-20.034-26.475-18.028l-0.101,0.101c-1.897,0.189-3.464,1.587-5.321,1.668l-0.041,0.581 c-5.361,2.403-6.376,5.376-10.047,6.138c7.009-8.649,14.206-17.15,21.229-25.78c0.216-1.1-1.168-1.506-1.965-1.755 c-2.386,2.928-22.84,28.374-24.22,29.29c0.389-7.468,11.611-24.256-7.529-38.575c-2.7-2.01-14.304-10.068-21.283-10.189 c-2.172-23.409,5.178-51.699,17.852-69.614c5.24,1.128,10.648,2.627,15.341,5.145l0.554-0.284l0.628,0.331l0.054,0.601 c9.247,0.936,38.097,26.298,43.551,34.314c-2.404,4.497-4.855,8.994-6.88,13.68c2.215-0.243,4.456-0.115,6.691-0.128 c1.783-0.966,3.882-1.81,5.962-1.391c5.427,1.66,12.7,23.609,13.605,28.622C913.163,935.322,908.146,942.484,891.173,971.934z M1123.39,1065.646c-15.506-6.068-27.23-8.497-30.547-7.799c0.047-0.142,0.155-0.425,0.203-0.567 c-31.814-3.383-53.645,9.104-55.941,9.169l-0.047,0.588c-0.304,0.007-0.905,0.034-1.209,0.047 c-6.887,3.552-13.828,7.313-20.472,11.411c3.451-6.396,18.891-29.973,25.894-31.066c0.155-0.223,0.466-0.668,0.621-0.891 c0.344-0.122,1.04-0.371,1.384-0.5l0.108-0.574c0.668-0.252,5.354-2.496,6.745-3.315c0.999-2.019-1.647-1.864-2.789-1.472 c-15.233,0.349-34.266,10.841-45.752,31.296c-12.235,21.695-41.109,37.527-42.113,37.636l-0.014,0.594 c-0.284,0.034-0.857,0.108-1.141,0.142c0,0-44.853,31.572-44.854,31.573c-0.149,0.223-0.459,0.662-0.614,0.885l-0.506-0.297 l0.068-0.52c-0.56-3.693-0.358-7.731,1.904-10.776c0.013-0.304,0.054-0.912,0.068-1.222l0.574-0.02 c-0.13-1.613,7.459-17.681,11.776-28.507c0.88,1.672,5.556,19.214,5.868,20.452c0.513,0.041,1.533,0.108,2.046,0.142 c1.83-8.643,3.295-17.393,5.557-25.921c1.404,9.291-1.33,18.467-4.355,27.164c7.961-4.078,14.558-12.012,15.28-21.195 c1.543-22.92-26.578-22.583,6.482-57.609c1-0.997,4.306-5.29,12.046-9.689c6.002-2.988,18.243-12.999,18.285-13.011l0.068-0.601 C1069.932,982.119,1113.316,1054.869,1123.39,1065.646z M1044.783,901.111c-15.02-7.213-42.485,35.408-64.867,51.093 c11.383-60.667,6.078-53.434,23.882-64.395c0.763-0.412,1.418-1.168,2.377-1.101l0.074-0.587 c36.452-15.569,55.19-8.784,58.541-6.408C1043.993,893.492,1042.953,892.363,1044.783,901.111z M984.756,740.985 c0.216-11.573,0.459-23.146,0.831-34.712c0.662-0.061,1.337-0.108,2.032-0.142c4.666,9.657-0.043,20.123-0.702,34.712 C986.377,740.877,985.297,740.945,984.756,740.985z M1016.471,602.669c10.074,12.946,4.345,34.583-9.048,42.545 c-0.979-13.234-2.964-26.401-4.031-39.608c1.956,2.422,11.959,18.641,12.971,20.52c1.04,0.054,2.107-0.128,2.964-0.79 C1018.335,617.787,1017.383,610.224,1016.471,602.669z M1015.56,775.313c0.27,0.081,0.803,0.23,1.074,0.304 c1.229,4.186,0.277,9.487,3.909,12.606c-8.296,18.648-20.539,32.021-26.38,35.712c-0.331-17.758,6.144-34.571,8.879-51.917 c4.342,6.772,8.481,13.693,13.038,20.317C1016.106,786.657,1015.701,780.971,1015.56,775.313z M1053.243,835.17 c-0.331,0.061-0.999,0.189-1.33,0.25l0.027,0.621l-0.581,0.412l-0.574-0.209c-5.25,3.712-31.868,20.291-33.896,21.33 c22.566-28.362,31.712-38.744,37.852-34.274c2.193,9.928,1.647,10.411-0.783,10.945c-0.196,0.209-0.587,0.628-0.776,0.837 L1053.243,835.17z M1149.818,827.439l-0.081,0.588c-1.393,0.588-21.345,14.069-22.167,14.26l-0.088,0.588 c-0.957,0.393-13.615,8.284-14.841,9.068c-3.643,2.981-3.854,7.163-2.681,11.722c-1.05-1.11-2.106-1.519-3.106-1.864l-0.088-0.574 c-22.154-1.599-24.353,15.496-46.353,14.578c-12.747,0.141-19.542-11.265-60.289,9.77c-3.782-3.676,52.76-44.316,58.061-44.699 l0.007-0.608l0.601-0.392l0.567,0.229c1.202-0.878,2.667-1.945,4.2-1.972l0.007-0.581c0.29-0.034,0.871-0.094,1.168-0.128 c6.403-3.597,21.866-10.41,48.392-16.05c13.437-2.519,27.285,0.101,40.269,3.761 C1151.025,826.886,1151.888,826.353,1149.818,827.439z M1413.096,818.911c-0.358,0.229-1.074,0.682-1.432,0.905 c-1-0.509-48.314-24.806-48.993-25.84c13.443-1.776,26.833-4.031,40.283-5.726C1406.168,798.52,1409.956,808.614,1413.096,818.911z M1217.568,682.654c0.5,0.324,0.925,0.75,1.283,1.263c-4.321,2.491-8.758,4.78-13.227,6.975c-0.338-0.797-0.628-1.566-0.925-2.336 C1209.034,686.685,1213.308,684.687,1217.568,682.654z M1150.372,736.576c2.998-4.862,8.433-7.272,12.775-10.709 c23.514-19.584,41.893-42.415,84.678-44.571c99.806,3.156,154.462,99.697,153.819,103.246 c-61.043,27.109-83.368-38.545-215.277,24.416c8.203-13.334,37.695-46.263,52.579-76.717c-7.754,1.867-33.095,50.847-45.232,50.209 c-3.167,1.931-3.72,5.901-5.685,8.771c-5.523,9.014-15.003,14.341-22.154,21.863c-1.127,1.202-2.957,0.783-4.402,0.824 c-32.716-2.415-59.949,0.133-95.785,15.476c-0.512-1.823-1.785-1.696-10.094-6.414c5.597-3.475,19.931-2.584,30.256-6.3 c-4.533,0.063-35.424,2.837-36.441,2.964c19.34-19.788,82.098-70.28,85.576-71.923 C1144.45,748.523,1145.133,744.975,1150.372,736.576z M1090.528,731.519l0.702-0.061l-0.027-0.588 c0.29-0.054,0.878-0.155,1.168-0.209c12.83-8.403,35.053-16.796,50.789-20.034c-3.228,2.269-6.901,3.842-10.108,6.151l-0.763-0.108 l-0.061,0.608c-4.824,2.217-7.503,4.694-11.398,6.151l-0.074,0.588c-3.032,1.309-3.291,2.068-4.699,2.167l-0.095,0.581 c-2.618,0.97-8.436,5.253-13.342,7.488l-0.094,0.581c-16.477,6.772-53.109,36.466-66.711,48.034 C1039.125,776.918,1059.939,750.048,1090.528,731.519z M1047.531,755.718c-1.485-15.057-2.613-30.161-4.294-45.198 c-0.236,0.155-0.716,0.459-0.952,0.608c1.285,7.728,5.207,50.581-20.628,75.813c6.751-31.852-18.624-26.335-16.779-36.623 c3.735-25.408,29.039-55.642,37.481-58.73c0.83,2.093-0.203,5.652,2.37,6.529c0.405-1.114,0.587-2.471,1.641-3.187 c-0.061,1.445-0.108,2.897,0.034,4.355c6.041-2.176,12.26-12.621,14.895-18.521c2.519-2.978,6.536-3.963,9.845-5.82 C1077.888,694.913,1066.617,736.405,1047.531,755.718z M1071.575,670.581c-31.199,17.921-30.126,12.698-58.689,46.022 c5.476-20.648,13.822-40.513,24.233-59.155c9.547,2.032,19.142,3.903,28.642,6.144c0.709-0.723,1.391-1.742,0.898-2.782 c-3.754-2.876-7.643-5.591-11.269-8.622C1062.94,652.723,1070.404,659.071,1071.575,670.581z M1065.154,651.649 c-1.783-2.964-4.483-5.138-7.204-7.157c-0.297-0.034-0.885-0.108-1.175-0.142v-0.588c-3.504-0.831-7.036-1.985-10.722-1.627 c0.002-0.002,7.387-10.475,8.339-11.897C1066.328,651.877,1066.462,651.613,1065.154,651.649z M1103.58,547.626 c-8.234-4.943-13.926-7.06-19.824,0.837c5.323,8.373,15.318,5.358,17.049,5.159c0.094,0.365,0.283,1.087,0.385,1.452 c-5.678,7.475-10.81,15.361-16.59,22.748l0.121,0.297c-14.063,17.929-13.465,20.716-16.09,19.73c0.203-2.789,1.614-5.375,1.83-8.19 c2.384-15.84-5.348-30.756-5.982-46.394c-0.068,0.101-0.196,0.304-0.257,0.405c0,0.001,1.067,33.564,1.067,33.565 c-15.044-2.869-19.626,11.191-14.287,25.732c0.25-0.013,0.743-0.041,0.986-0.061c0.108-0.061,0.324-0.196,0.432-0.257 c3.106-3.322,6.928-5.969,10.304-9.041c6.912-8.736-12.593,35.755-11.451,23.713c-1.486-3.862-1.985-8.265-4.625-11.573 c0.831,9.598,5.975,12.144-1.472,22.032c-1.096,1.826-18.441,25.107-31.829,57.075c-1.519,3.079-2.269,6.536-4.2,9.392 c-0.007-0.856-0.911-35.631-1.04-37.123c0.719-5.86,19.294-22.501,19.331-49.884c-0.403-20.039-25.242-24.751-26.975-23.295 c-2.064-2.435-9.077-27.323,3.261-47.271c10.38-16.866,28.268-35.182,43.558-44.665l-0.115-0.149 c55.927-37.057,53.015-47.264,76.258-47.663l-0.25,0.817c-5.901,1.573-12.032,2.741-17.724,4.834 c10.875,6.838,12.648,6.664,28.96,2.789C1133.722,482.286,1114.114,535.569,1103.58,547.626z M1015.499,490.409 c0.466-0.378,1.06-0.419,1.769-0.115c-2.113,10.817-5.679,21.701-12.431,30.573c-0.473-0.284-1.425-0.844-1.897-1.121 c4.409-9.48,8.096-19.345,12.572-28.771L1015.499,490.409z M993.987,389.573l0.716-0.101l-0.425-0.263 c18.307-53.016,47.562-84.603,89.134-112.719c23.36,44.061,52.97,90.385,49.216,128.371c0.743,0.439,1.533,0.891,2.336,1.323 c1.006,9.406,0.79,18.906,1.148,28.359c-10.364-2.719-15.541-0.472-23.943,5.962c1.254-3.482,13.254-21.454,16.077-26.921 c0,0-18.842,25.137-28.203,33.727c-22.453,21.468-71.323,46.352-83.3,62.497c-0.918,1.026-1.182,3.437-3.038,2.762 c2.35-8.339,5.314-16.529,7.272-24.956c-18.119-5.934-17.848,10.941-32.315,43.686C975.23,474.922,980.712,432.704,993.987,389.573z M982.468,579.543c1.764,1.764,15.44,81.751,2.134,100.458c-0.862-1.002-8.996-11.126-11.985-17.137 C965.688,649.354,977.177,585.683,982.468,579.543z M976.546,548.038c-0.176,3.086,0.115,6.178,0.081,9.271 c-0.311,3.849,3.633,6.968,2.302,10.884c-13.849,54.468-11.376,47.608-25.766,45.381c-1.837-6.799-0.648-14.146,2.856-20.209 c-0.574-0.925-2.113-1.742-1.182-2.937c11.092-28.346,12.7-33.022,17.778-40.958C973.811,548.855,975.135,547.7,976.546,548.038z M953.406,417.486c-5.233-4.848-10.256-9.919-15.476-14.78C943.405,403.805,951.554,412.703,953.406,417.486z M952.752,421.321 c0.587-0.695,1.236-1.357,1.972-1.917c2.055,4.182,2.158,32.112,2.08,33.983c-0.895-0.31-20.557-35.719-21.012-36.549 C941.469,418.236,947.08,419.89,952.752,421.321z M874.488,360.039c40.735,32.765,97.853,153.287,94.469,164.981l0.554,0.007 c1.192,13.097,10.611,12.988-1.317,29.804c-2.907,3.639-9.931,16.724-20.243,16.016l-0.02,0.574 c-0.29,0.027-0.871,0.074-1.161,0.101c-1.874,1.477-18.758,8.401-15.165,30.411c-45.755-63.219-41.502-52.217-61.559-73.814 C866.077,523.648,821.635,432.064,874.488,360.039z M844.07,397.223c-0.891,0.378-1.762,0.77-2.627,1.182 c5.233-30.462,18.158-51.586,18.811-54.314c0,0.001,7.015,11.289,7.015,11.289c0.25-0.648,0.52-1.297,0.803-1.938 c1.371,1.58,3.261,2.843,4.321,4.632c-29.393,55.418-39.161,84.093-10.034,162.557c1.607,0.614-1.222,1.715-0.567,0.142 c-10.38-3.831-13.686-19.981-14.632-23.187C827.771,428.519,843.904,398.224,844.07,397.223z M842.092,502.751l0.513-0.034 c0.027,0.29,0.088,0.878,0.115,1.175l-0.52,0.014c0.309,3.091-3.638-1.474-29.635-19.345c1.631-2.857,0.919-4.455,11.148-13.551 C825.169,473.48,841.191,500.556,842.092,502.751z M816.481,476.344c-1.128,2.795-4.22,3.761-6.32,5.658 c-3.646-2.627-7.036-5.611-10.466-8.501c4.774-2.876,9.797-5.314,14.585-8.177c-0.108-0.729-0.209-1.452-0.284-2.161 c-6.117-0.392-12.248-0.263-18.372-0.493c6.239-3.95,14.375-2.795,20.979-0.203C825.319,465.512,816.977,475.344,816.481,476.344z M813.679,459.626c-4.294-1.01-2.685-6.332-20.297-3.578l-0.027,0.601c-0.284,0.027-0.858,0.081-1.148,0.108 c-2.194,2.181-6.698,3.342-9.115,1.377c-0.277-0.068-0.831-0.203-1.107-0.27l0.068-0.581c-2.309-1.182-4.031-3.828-5.672-5.922 c0.662-0.459,1.391-0.763,2.188-0.918l0.121-0.574c1.343-0.448,12.903-7.008,18.292-10.297 C797.982,440.334,811.397,453.619,813.679,459.626z M767.42,422.928c-0.29,6.624-0.068,13.815,3.862,19.46 c2.539-6.374,4.578-12.957,7.373-19.217c1.393,0.536,15.401,13.072,16.124,13.815c-1.114,0.52-2.113,1.6-3.403,1.485l0.007,0.56 c-1.636,0.223-0.746-0.002-2.795,0.817l-0.054,0.581c-7.395,3.194-10.669,5.734-15.942,7.63 C766.738,441.348,763.585,431.368,767.42,422.928z M732.768,397.324c0.263-1.431,2.228-1.175,2.741-0.135 c0.297,0.041,0.885,0.121,1.182,0.155l-0.014,0.581c2.43,0.625,10.957,5.475,26.765,13.288c-7.169,10.362-5.393,16.5-2.62,22.876 C759.206,434.825,731.962,398.242,732.768,397.324z M731.256,406.23c1.104,0.973,7.584,10.373,8.157,11.479 C734.429,415.171,728.949,412.482,731.256,406.23z M728.488,420.801c15.726,1.164,26.562,18.871,37.562,31.208 c-22.403,6.036-44.922,11.654-67.379,17.515C712.477,449.957,711.098,456.046,728.488,420.801z M697.543,470.186 c-0.716,1.073-1.472,2.113-2.262,3.126c-0.723-0.648-1.513-1.249-1.87-2.161C694.788,470.855,696.172,470.557,697.543,470.186z M655.707,497.795l0.101-0.587c2.02-0.853,14.488-8.91,16.104-8.852l0.014-0.594l0.601-0.371l0.574,0.25 c24.093-13.547,94.768-31.74,95.772-31.35c3.078,1.246,0.923,0.671,33.889,32.835c-10.195,17.754-23.546-8.282-40.364,10.128 c-10.951,12.169,2.807,11.944,9.176,14.753c-8.629,6.124-18.406,10.56-28.068,14.848l-0.972-0.007l0.027,0.5 c-1,0.387-13.078,4.959-17.414,6.469l-0.797-0.108l0.027,0.452c-30.163,10.046-28.559,12.078-39.709,18.426l-0.749,0.027 l-0.047,0.587c-0.945,0.478-1.537,0.814-2.633,0.803l-0.041,0.581c-0.925,0.441-1.569,0.767-2.647,0.736l-0.047,0.587 c-0.304,0.007-0.905,0.034-1.209,0.041c-2.545,2.068-34.414-5.604-35.422-5.854C643.37,514.499,639.518,502.44,655.707,497.795z M640.852,554.425c9.71,2.417,19.277,5.402,29.027,7.67c-0.645,1.751-40.288,40.562-41.863,41.89 C632.203,587.443,636.592,570.948,640.852,554.425z M610.265,539.915c-0.115-0.878-0.216-1.749-0.29-2.613 c0.003-0.003,25.124-25.172,25.125-25.172c0.297-1.492,2.728-0.803,2.579,0.513c-0.307,29.992,2.997,23.583-25.172,28.447 c0.351,6.313-7.512,6.655-5.179,27.656c2.272-2.396,7.043-11.544,11.215-17.637l0.797-0.304c0.552,1.625-3.473,7.389-10.074,20.506 c0.574,0.587,1.168,1.175,1.789,1.762c5.347-3.298,6.179-4.746,9.574-6.421l0.095-0.594c1.849-0.801,9.052-6.364,14.402-9.973 c-0.001,0.002-20.695,66.737-20.695,66.738c-0.29-0.061-0.878-0.189-1.168-0.257l0.095-0.493c-0.837-1.141-0.581-2.633-0.831-3.943 C606.966,559.128,592.258,545.894,610.265,539.915z M562.481,618.719c-0.696-4.312,3.766,3.172,17.765,9.649 c11.004,4.567,18.891,4.829,23.49,5.739c-1.057-7.069-14.9-15.883-17.123-17.4c5.8,0.729,10.412,4.888,14.375,8.892l-0.068,0.135 c1.08,0.966,2.005,2.093,3.092,3.072c2.307-19.631-17.188-27.263-36.232-22.289c2.343-6.442,5.651-12.505,8.325-18.818 c8.346,1.587,16.792,2.761,25.091,4.564c3.536-13.14-6.484-16.92-10.398-19.399c-0.297-0.02-0.905-0.054-1.202-0.074l-0.027-0.574 c-1.404,0.142-2.627-0.689-3.835-1.242c2.287-4.443,11.605-18.007,12.64-19.075c5.868,28.537,6.463,25.919,8.683,71.505 c-0.182,8.035,2.068,11.073-9.223,32.653c-6.302,11.172-0.914,10.045-18.555,12.059c-19.176,2.075-33.06,9.312-30.195,32.228 c4.409-4.996,8.575-10.223,12.951-15.246c0.284-0.054,0.851-0.155,1.134-0.209c-0.903,2.71-8.538,12.068-11.951,17.36 c3.714-0.446,6.982-2.714,10.621-3.268l0.108-0.574c8.56-2.916,17.53-8.539,23.396-16.171c-2.492,12.761-5.631,25.415-8.292,38.156 l-0.425,0.304c-0.013,0.5-0.04,1.499-0.054,1.992l-0.392,0.02c0.361,1.303-8.631,39.969-9.291,42.653 C543.996,695.309,538.875,704.665,562.481,618.719z M413.293,637.55c4.024,1.485,7.792,3.612,11.857,4.997 c-0.603,1.206-9.294,4.017-10.574,13.754l-0.702-0.027C413.8,650.021,413.449,643.769,413.293,637.55z M435.271,692.37 c-0.162-0.081-0.493-0.243-0.662-0.324c-3.416-10.35-8.813-10.801-20.141-11.046c0.101-6.111-0.398-12.262-0.419-18.332 c1.283-1.837,2.701-3.585,4.139-5.3c0.236-0.014,0.709-0.034,0.952-0.047c-1.323,2.35-2.296,4.868-3.423,7.313 c0.466,0.628,0.939,1.263,1.425,1.911c5.294-3.511,11.121-6.219,16.138-10.162c1.003-0.768,10.598-9.613,11.661-2.593 c-0.392,1.459-6.007,23.191-6.084,24.868l-0.567,0.027C437.966,683.316,436.028,687.759,435.271,692.37z M443.05,739.946 c-4.779-4.934-12.438-49.859,6.131-84.833c35.389,21.135,84.433,62.298,102.159,101.855c-24.539-21.314-36.288-14.475-69.776-6.853 c5.126,9.286,13.18,15.597,22.268,21.161c0.297,0.02,0.884,0.068,1.182,0.088l0.02,0.594c0,0,8.163,4.616,49.966,9.824 c-6.174-8.625-18.271-15.751-18.285-15.766c-0.297-0.047-0.891-0.135-1.188-0.176l0.013-0.594 c-0.158,0.009-12.639-5.681-12.734-5.726l-0.365-0.615c4.76,0.547,9.169,2.552,13.639,4.139c0.142,0.203,0.432,0.601,0.574,0.803 c3.953-1.122,20.093,14.211,21.094,15.037c-0.088-1.62-0.243-3.241-0.176-4.848c3.805,2.294,0.395,7.975,8.825,8.906 c16.627,48.481,26.183,48.158,24.794,71.559c-1.35-1.148-1.891-2.89-3.072-4.152c-27.078-29.584-68.382-53.911-74.732-56.049 l-0.122-0.574c-0.392-0.176-1.175-0.527-1.566-0.702c-0.29-0.034-0.858-0.101-1.148-0.135l0.007-0.588 c-0.698,0.138-6.326-2.906-6.86-3.362c-0.297-0.02-0.898-0.054-1.202-0.074l-0.034-0.581l-0.763,0.041 c-0.203-0.169-0.601-0.513-0.797-0.682c-0.297-0.041-0.885-0.128-1.182-0.169l0.027-0.567 C497.988,787.203,466.176,771.722,443.05,739.946z M522.137,758.629v0.473c-0.297-0.007-0.891-0.02-1.188-0.02v-0.459 C521.246,758.622,521.84,758.629,522.137,758.629z M398.412,773.463c5.106,3.793,3.551,8.182,6.705,12.106 c-4.794-1.58-9.311-3.923-14.004-5.773l-0.182-0.324c-0.29-0.013-0.871-0.047-1.161-0.061l-0.034-0.574 c-3.437-0.398-6.374-2.849-9.473-4.328c-0.047-0.297-0.142-0.898-0.189-1.195C386.19,773.321,392.402,771.64,398.412,773.463z M342.477,782.281c13.837-5.28,37.815-11.218,48.291-0.858c-11.977,0.105-16.543,6.473-20.722,17.488 C368.3,798.253,346.687,785.14,342.477,782.281z M375.043,802.004c-0.027-0.162-0.081-0.493-0.108-0.662 c2.478-1.155,4.706-3.106,7.306-3.822l0.088-0.574c1.619-0.6,8.027-4.586,13.254-7.481c1.215-0.304,0.56-1.593,0.554-2.41 c-2.417-0.216-4.848-0.169-7.238-0.567c12.883-4.342,14.209,3.651,22.829,12.248c0.906,1.008,15.021,16.898,15.766,18.285 c-5.179,0.682-10.439,0.074-15.638,0.574c6.712,1.843,14.051,2.066,20.351,5.037c0.304,0.027,0.911,0.088,1.215,0.122v0.574 c3.859,0.721,9.97,6.607,12.876,9.338C421.808,824.313,397.662,814.637,375.043,802.004z M443.448,820.795 c3.909-0.324,7.022-3.079,10.277-5.01c-11.701-4.378-10.006-2.718-12.478-1.398c-5.891-9.51-1.798-23.16-2.681-25.685 c-4.894,10.115-0.793,19.417,0.162,30.594c-8.637-4.044-27.931-23.502-34.969-46.725c51.782,5.526,34.666,4.539,39.891,6.374 c20.659,1.406,48.406,13.264,66.164,23.018l0.162,0.304c0.297,0.041,0.891,0.108,1.188,0.149l0.014,0.574 c0.815-0.163,10.09,5.661,11.303,6.151l0.081,0.581c14.093,3.952,61.111,50.364,62.882,52.032c-0.135,0.236-0.412,0.716-0.547,0.959 c0,0-48.982-14.207-82.551-17.116c-0.142-0.095-0.425-0.29-0.567-0.385c-45.151-5.495-34.179-15.175-45.968-18.649 C451.503,826.521,450.06,832.867,443.448,820.795z"/> <path d="M284.98,73.798C283.44,77.038,288.02,74.158,284.98,73.798"/> </svg>